<?xml version="1.0" encoding="UTF-8" standalone="no"?>
<svg width="459px" height="527px" viewBox="0 0 459 527" version="1.1" xmlns="http://www.w3.org/2000/svg" xmlns:xlink="http://www.w3.org/1999/xlink" xmlns:sketch="http://www.bohemiancoding.com/sketch/ns">
    <!-- Generator: Sketch 3.3.2 (12043) - http://www.bohemiancoding.com/sketch -->
    <title>Bicho Bola en manos</title>
    <desc>Created with Sketch.</desc>
    <defs>
        <linearGradient x1="83.8573144%" y1="45.9188318%" x2="93.5024145%" y2="48.2190302%" id="linearGradient-1">
            <stop stop-color="#FFFFFF" offset="0%"></stop>
            <stop stop-color="#FFFFFF" stop-opacity="0" offset="100%"></stop>
        </linearGradient>
        <linearGradient x1="92.715057%" y1="37.7046308%" x2="73.3001382%" y2="35.7697783%" id="linearGradient-2">
            <stop stop-color="#3E3935" stop-opacity="0" offset="0%"></stop>
            <stop stop-color="#000000" offset="100%"></stop>
        </linearGradient>
        <path d="M19.3859537,20.3106543 L21.1527843,20.3106543 L21.1527843,18.526236 L19.3859537,18.526236 L19.3859537,20.3106543 Z M15.8277005,5.96652933 L17.5945311,5.96652933 L17.5945311,4.18211102 L15.8277005,4.18211102 L15.8277005,5.96652933 Z M15.8277005,20.3106543 L17.5945311,20.3106543 L17.5945311,18.526236 L15.8277005,18.526236 L15.8277005,20.3106543 Z M14.0627615,2.37476656 L19.3859537,2.37476656 L19.3859537,7.74903713 L14.0627615,7.74903713 L14.0627615,2.37476656 Z M12.2978225,9.53345545 L21.1527843,9.53345545 L21.1527843,0.590348243 L12.2978225,0.590348243 L12.2978225,9.53345545 Z M14.0627615,20.3106543 L14.0627615,14.9344732 L15.8277005,14.9344732 L15.8277005,16.716981 L21.1508926,16.716981 L21.1508926,11.3427104 L19.3859537,11.3427104 L19.3859537,13.1252182 L17.5945311,13.1252182 L17.5945311,11.3427104 L12.2978225,11.3427104 L12.2978225,20.3106543 L14.0627615,20.3106543 L14.0627615,20.3106543 Z M5.18320775,5.96652933 L6.95003842,5.96652933 L6.95003842,4.18211102 L5.18320775,4.18211102 L5.18320775,5.96652933 Z M5.18320775,16.716981 L6.95003842,16.716981 L6.95003842,14.9325627 L5.18320775,14.9325627 L5.18320775,16.716981 Z M3.39178522,2.37476656 L8.73956927,2.37476656 L8.73956927,7.74903713 L3.39178522,7.74903713 L3.39178522,2.37476656 Z M3.39178522,13.1252182 L8.73956927,13.1252182 L8.73956927,18.5013993 L3.39178522,18.5013993 L3.39178522,13.1252182 Z M1.62495455,9.53345545 L10.5045083,9.53345545 L10.5045083,0.590348243 L1.62495455,0.590348243 L1.62495455,9.53345545 Z M1.62495455,20.3106543 L10.5045083,20.3106543 L10.5045083,11.3427104 L1.62495455,11.3427104 L1.62495455,20.3106543 Z" id="path-3"></path>
    </defs>
    <g id="Landing-PetBio-150714" stroke="none" stroke-width="1" fill="none" fill-rule="evenodd" sketch:type="MSPage">
        <g id="Desktop-HD" sketch:type="MSArtboardGroup" transform="translate(-132.000000, -922.000000)">
            <g id="Block02" sketch:type="MSLayerGroup" transform="translate(0.000000, 840.000000)">
                <g id="Bicho-Bola-en-manos" transform="translate(83.000000, 81.592233)">
                    <g id="Group" transform="translate(0.000000, 226.893204)" sketch:type="MSShapeGroup">
                        <path d="M322.665536,108.55134 C305.281867,109.551284 294.075766,109.265693 282.438777,107.694565 C270.801788,106.123437 263.187551,105.837846 258.302647,103.69516 C253.41812,101.552849 247.240552,99.1245724 245.085358,96.9822616 C242.930542,94.8395761 240.105832,89.6558286 237.471121,87.1267325 C233.30474,83.1273276 228.943461,79.4569901 220.661969,74.7001307 C214.197143,70.9863172 210.748909,68.8440065 207.58831,67.1300829 C204.427712,65.4157845 200.54859,63.2734737 195.376804,63.5590652 C190.204641,63.8446566 182.446774,64.8446016 177.849129,63.9874524 C173.25186,63.130678 167.50518,62.701916 163.913694,61.8451416 C160.321831,60.9879924 157.161232,60.9879924 152.707593,61.1307881 C148.253954,61.2739587 141.214233,61.2739587 137.622747,61.1307881 C134.030883,60.9879924 129.577244,61.4167544 127.134792,65.2729888 C124.692717,69.1295979 126.416646,75.7000756 131.157543,78.8423313 C135.898441,81.984587 143.656685,84.984047 150.265141,85.9839919 C156.873973,86.9839368 156.586715,86.1267876 157.879756,86.1267876 C159.172796,86.1267876 172.964602,85.9839919 174.544901,86.4123791 C176.1252,86.8407663 178.567652,86.2695833 179.429805,87.6979155 C179.429805,87.6979155 178.567652,88.8406561 173.970384,88.9834518 C169.373115,89.1262476 167.659742,90.0006372 164.63184,90.1261925 C161.183983,90.2689882 161.536836,91.287298 159.460055,90.6973754 C158.454273,90.411784 154.000634,90.411784 149.403365,90.1261925 C144.806097,89.840601 145.070736,90.3806762 141.214233,88.5550646 C138.197264,87.1267325 132.737843,85.4124342 126.847534,83.2701234 C120.957224,81.1274378 118.514772,80.4134591 115.785062,78.8423313 C113.055728,77.2712034 104.004443,74.5573349 100.987474,73.55739 C97.970505,72.5574451 96.8210936,72.1290579 95.3844236,71.129113 C93.9477537,70.1295428 85.6149925,65.130193 79.5810541,64.2734186 C73.5471156,63.4162694 67.6568065,64.2734186 66.5073951,71.7006707 C66.5073951,71.7006707 60.6397047,71.3157594 57.4564874,75.2713136 C54.5831475,78.8423313 55.8761882,82.6985656 58.1746339,84.412864 C60.4734567,86.1267876 63.9213138,88.4118941 63.9213138,88.4118941 C63.9213138,88.4118941 53.7209947,87.5551197 53.0028482,98.2674232 C53.0028482,98.2674232 47.3726551,97.7502103 44.8137164,102.838386 C43.0897878,106.266233 45.100975,108.408544 46.3940156,109.836876 C47.6870563,111.265208 49.1237262,113.550689 49.1237262,113.550689 C49.1237262,113.550689 46.8252805,115.264613 47.543427,117.407298 C48.2615735,119.549609 52.5719603,124.691755 53.7209947,127.976806 C54.8704061,131.261858 57.8873753,134.975671 59.180416,137.118357 C60.4734567,139.260667 63.6163371,142.418664 65.6456193,144.688404 C67.9440651,147.259477 71.6795578,152.829635 74.5528977,157.828985 C77.4262376,162.82796 82.454394,170.112791 85.4713632,172.540693 C88.4883324,174.96897 96.9647229,182.82461 97.970505,184.252942 C97.970505,184.252942 96.3902057,190.966215 99.1199163,194.680029 C101.849627,198.393467 107.452678,198.965025 110.469647,199.393412 C113.486616,199.821799 118.371143,200.821744 118.371143,200.821744 C118.371143,200.821744 123.974194,206.392277 125.841751,207.963405 C127.709686,209.534533 129.002727,213.248346 131.013914,215.533453 C133.025101,217.818934 136.186077,220.390007 141.214233,220.818394 C146.242767,221.246781 148.110324,219.818449 152.563964,219.390062 C157.017603,218.961675 160.458674,218.427971 165.781252,219.390062 C168.94185,219.961245 173.39549,218.961675 178.136764,218.961675 C182.877662,218.961675 189.773753,218.675708 197.244362,217.818934 C204.71497,216.961785 214.340772,216.676193 223.535309,218.961675 C232.730223,221.246781 242.353009,224.451627 247.958698,228.10285 C252.125079,230.816719 254.567531,234.816124 259.308429,237.387196 C264.049326,239.957894 271.519935,244.957244 274.968169,248.527887 C278.416026,252.098905 339.429731,311.587606 341.584547,313.444326 L390.702284,366.465122 L429.846167,270.901093 C429.846167,270.901093 342.491657,224.817799 332.147709,218.961675 C321.803384,213.10555 309.448248,204.106796 302.121269,198.536263 C294.79429,192.96573 277.266615,180.682299 274.249646,178.254022 C274.249646,178.254022 311.611735,183.055107 323.383683,184.8245 C335.739195,186.681219 407.083751,197.212123 407.083751,197.212123 L407.22738,106.409029 C407.22738,106.409029 340.049205,107.551769 322.665536,108.55134 Z" id="Fill-1" fill="url(#linearGradient-1)" transform="translate(236.996210, 213.762564) scale(-1, 1) rotate(-22.000000) translate(-236.996210, -213.762564) "></path>
                        <path d="M332.280799,123.76219 C332.280799,123.76219 333.57384,120.905526 333.430211,118.334453 C333.286581,115.76338 334.148734,111.192792 336.016292,108.764515 M353.54359,131.903795 C353.54359,131.903795 351.819662,129.903905 353.256332,127.047241 C354.693002,124.190577 355.411148,123.619394 356.704189,120.477138 C357.496223,118.552207 361.014199,114.192252 361.445087,111.478384 M361.876351,119.762785 C361.876351,119.762785 360.008794,124.762135 359.577529,131.046646 C359.146641,137.331158 362.594498,140.045026 364.174797,145.187172 M344.92357,126.76165 C344.92357,126.76165 345.354458,132.474978 342.337489,136.474383 M333.861099,130.761055 C333.861099,130.761055 333.430211,135.474438 334.866881,140.045026 C336.303551,144.615614 335.729033,146.615504 337.88385,151.90007 C340.039043,157.185011 339.751408,162.89834 341.762972,166.183766 C343.774159,169.468818 348.946322,174.324997 358.428117,178.467198 M339.464149,145.044376 C339.464149,145.044376 343.774159,153.328777 357.997229,156.756624 C372.2203,160.184471 381.702472,160.470063 381.702472,160.470063 M327.396272,148.615019 C327.396272,148.615019 330.269612,155.042701 329.982354,158.184956 C329.694718,161.327212 332.424429,162.327157 333.57384,165.041026 C334.723251,167.754894 331.993541,173.325427 332.855694,175.753329 C333.717469,178.181606 337.88385,184.03773 335.872663,188.179931 C333.861099,192.322132 332.616311,195.749979 332.90357,198.03546 M309.581339,147.329482 C309.581339,147.329482 301.392584,141.044971 296.076792,138.331102 C290.761,135.617234 288.031666,134.76046 286.163731,133.332127 C284.705573,132.216747 275.388895,126.904446 270.791627,124.90493 C266.193981,122.905041 262.746124,121.048321 259.298267,118.620044 C255.850033,116.192142 247.278266,110.050052 240.71731,109.43127 M271.940661,113.335478 C271.940661,113.335478 272.659184,118.76284 269.785844,122.048266 M290.761,120.191172 C290.761,120.191172 287.744031,124.190577 288.031666,130.046701 M294.783751,121.476708 C294.783751,121.476708 294.640122,129.047131 291.623153,132.76057 M318.488994,127.476003 C318.488994,127.476003 316.908695,132.617774 313.60409,136.474383 M317.626841,134.903255 C317.626841,134.903255 315.615654,140.187822 312.311049,143.187282 C309.006821,146.187117 309.725345,147.90104 309.725345,149.329372 C309.725345,150.757704 309.437709,156.042271 306.852005,158.756139 C304.265924,161.470008 306.133481,162.612748 306.42074,163.041136 M305.558964,161.612804 C305.558964,161.612804 299.23739,156.471033 293.778346,154.328347 C288.318925,152.186036 286.882255,150.614909 283.290391,148.757814 C279.698905,146.901095 272.371926,143.616044 267.630651,141.473358 C262.889753,139.331047 260.447301,138.188307 257.861597,136.331587 C255.275516,134.474493 241.483333,126.047296 237.748217,126.190467 M259.872784,134.331698 C259.872784,134.331698 264.182794,129.332723 263.895535,124.047781 M282.715874,135.474438 C282.715874,135.474438 280.991946,139.473843 281.279204,142.616099 M286.307361,146.472708 C286.307361,146.472708 289.611965,144.90158 288.893442,137.902715 M227.116633,135.950799 C227.116633,135.950799 237.173323,137.188362 244.356673,148.757814 C251.540023,160.327267 251.683652,163.041136 253.120322,165.755004 C254.556992,168.468873 254.796751,170.563585 256.568556,172.611073 M223.525147,151.328887 C223.525147,151.328887 229.319703,146.901095 237.460582,151.471683 C245.098946,155.760052 247.517272,159.89888 250.534618,164.755434 C253.551587,169.611613 259.471678,176.049789 262.602495,178.895585 C267.630651,183.466547 271.366144,189.322672 275.388895,192.750519 C279.411646,196.178366 295.645904,201.653701 298.662873,209.937728 M243.063632,146.758299 C243.063632,146.758299 248.092166,147.615449 251.252764,153.89996 C254.156263,159.67288 258.005226,165.183821 259.441896,168.611668 C260.878566,172.03989 271.797032,181.466657 274.814001,184.894879 C277.83097,188.322727 279.986164,189.179876 288.318925,192.607723 C296.651686,196.03557 303.260142,201.654076 305.127699,205.36789 M259.298267,168.040485 C259.298267,168.040485 266.481617,168.183281 273.52096,173.182256 C278.596993,176.787005 279.411646,178.324402 280.991946,178.752789 C282.572245,179.181551 288.031666,179.89553 294.209234,184.894879 C300.386802,189.893854 313.412961,192.464927 319.877787,198.606643 M250.821876,153.185607 C250.821876,153.185607 257.143073,152.186036 264.757311,155.899475 C272.371926,159.613289 277.543711,162.612748 279.555276,163.041136 C281.566463,163.469898 287.313143,165.326617 292.916193,168.468873 C297.470863,171.023455 299.38102,171.753924 302.254359,173.325427 C305.127699,174.896555 308.432304,176.610478 311.305644,179.03838 M311.162015,177.181661 C311.162015,177.181661 310.73075,179.324347 313.173202,183.180581 M306.708376,175.800928 C306.708376,175.800928 307.85741,170.468388 307.426522,167.89769 M286.307361,152.757219 C286.307361,152.757219 289.468336,157.327807 286.45099,161.755599 M280.991946,161.041621 C280.991946,161.041621 280.417051,154.471143 282.715874,151.614479 M256.999444,150.614909 C256.999444,150.614909 260.734937,151.328887 261.740342,140.473788 M276.250671,171.611128 C276.250671,171.611128 278.549494,168.326077 278.980381,164.326672 M293.49071,171.468333 C293.49071,171.468333 292.485305,175.324942 293.059822,178.895585 M295.502275,179.467142 C295.502275,179.467142 296.50768,177.181661 296.076792,174.182201 M278.836752,184.323322 C278.836752,184.323322 280.273422,181.03827 279.986164,178.181606 M295.933162,192.03654 C295.933162,192.03654 296.50768,188.608318 297.226203,187.03719 M276.777689,190.417814 C276.777689,190.417814 277.974976,188.751863 279.124011,188.561094 M269.115574,198.606643 C269.115574,198.606643 272.324049,193.417274 275.867659,193.131682 M247.469772,176.89607 C247.469772,176.89607 252.833064,174.2298 253.982475,172.325482 M272.515555,221.983166 C272.515555,221.983166 274.239484,216.222614 284.152544,213.69914 C293.443965,211.333828 301.967101,209.033355 314.178984,210.747653 C326.39049,212.461577 331.562653,215.318241 337.452962,214.889854 C343.343271,214.461092 347.653281,214.746683 351.532403,212.318781 C355.411148,209.890504 359.530029,199.36897 378.110609,194.988401 C396.691189,190.608208 416.054001,188.949754 428.490187,198.606643 C436.20244,204.595443 443.851737,211.829303 446.783885,214.556664 C447.511456,215.233538 448.412061,215.8422 448.412061,215.8422 M419.870168,191.940968 C419.870168,191.940968 418.911885,182.228235 421.210708,170.992347 C423.50953,159.756084 422.93539,145.663157 421.977108,142.044916 M430.788633,146.615504 C430.788633,146.615504 432.704067,157.470603 430.214116,168.89726 C427.724164,180.323917 428.490187,192.703295 428.490187,192.703295 M292.293423,238.266752 C292.293423,238.266752 302.063231,239.171875 305.894099,240.504635 C309.725345,241.83777 315.663153,242.980511 322.367739,242.408953 C329.072701,241.83777 342.28999,243.17053 349.760598,246.027194 C357.231206,248.883859 363.935792,249.455416 363.935792,249.455416" id="Stroke-2" stroke="#473F3D" stroke-width="0.5" transform="translate(335.968604, 179.109966) scale(-1, 1) rotate(-22.000000) translate(-335.968604, -179.109966) "></path>
                        <path d="M311.993661,241.118431 C311.993661,241.118431 310.844249,234.262362 312.185166,227.406293 L311.993661,241.118431 Z M320.422175,241.49922 C320.422175,241.49922 322.912126,237.118277 322.912126,232.738458 L320.422175,241.49922 Z M326.36036,241.880009 C326.36036,241.880009 329.2337,237.118277 327.892783,227.02513 L326.36036,241.880009 Z M293.987221,236.928257 C297.448273,236.691014 298.775995,234.642776 298.775995,232.167275 C298.775995,229.691774 298.967501,225.121187 299.159007,222.835705 C299.35089,220.550224 297.626961,218.313091 292.838187,218.50311 C288.049413,218.693505 283.308892,218.962605 280.291169,222.550489 C277.848717,225.454751 277.811019,231.379837 280.578427,233.691179 C282.972626,235.690694 288.43167,237.308671 293.987221,236.928257 L293.987221,236.928257 Z M303.182135,211.695389 C303.182135,211.695389 304.906064,209.313961 307.204886,207.980826 C309.503332,206.648066 312.523694,205.260961 314.867001,204.743373 C318.314858,203.981796 321.379703,204.36296 328.275794,209.123567 L303.182135,211.695389 Z M319.081258,204.552979 C319.081258,204.552979 321.571586,199.601228 327.126383,199.030045 C332.681557,198.458487 334.022474,198.268468 336.895814,198.839651 C339.769154,199.410834 342.259106,199.220814 345.324328,198.649631 C348.389174,198.078073 351.071008,198.078073 354.902254,198.078073 C358.733122,198.078073 376.931067,195.411803 383.252265,195.982986 L319.081258,204.552979 Z M341.876094,212.741808 C342.738247,212.456217 350.496114,207.600038 350.78375,202.172301 L341.876094,212.741808 Z" id="Stroke-3" stroke="#473F3D" stroke-width="0.5" transform="translate(330.866122, 218.891388) scale(-1, 1) rotate(-22.000000) translate(-330.866122, -218.891388) "></path>
                        <path d="M329.334015,113.741407 C311.950346,114.740977 300.744245,114.455386 289.107256,112.884258 C277.470267,111.31313 269.855652,111.027539 264.971125,108.884853 C260.086598,106.742542 253.908653,104.314265 251.753837,102.17158 C249.598643,100.029269 246.774311,94.8455213 244.139222,92.3164252 C239.973218,88.3170203 235.611939,84.6466828 227.330447,79.8898234 C220.865244,76.1760099 217.417387,74.0336992 214.256788,72.3197756 C211.09619,70.6054772 207.217068,68.4631664 202.044905,68.7487579 C196.873119,69.0343493 189.114875,70.0342943 184.517607,69.1771451 C179.920338,68.3203707 174.173659,67.8919835 170.581795,67.0348343 C166.990309,66.1776851 163.82971,66.1776851 159.376071,66.3208556 C154.922432,66.4636514 147.882711,66.4636514 144.290848,66.3208556 C140.699362,66.1776851 136.245722,66.6064471 133.80327,70.4626815 C131.360818,74.3192906 133.084747,80.8897683 137.826022,84.032024 C142.566919,87.1742797 150.324786,90.1737397 156.933619,91.1736846 C163.542452,92.1732547 163.254816,91.3164803 164.547857,91.3164803 C165.840897,91.3164803 179.63308,91.1736846 181.213379,91.6020718 C182.793678,92.030459 185.23613,91.459276 186.097906,92.8876082 C186.097906,92.8876082 185.23613,94.0303488 180.638485,94.1731446 C176.041216,94.3159403 174.32822,95.1903299 171.300319,95.3158852 C167.852462,95.4586809 168.204938,96.4769907 166.128156,95.8870681 C165.122751,95.6014767 160.669112,95.6014767 156.071466,95.3158852 C151.474198,95.0302937 151.739215,95.5703689 147.882711,93.7447574 C144.865742,92.3164252 139.406321,90.6021269 133.516012,88.4598161 C127.625703,86.3171305 125.183251,85.6031518 122.45354,84.032024 C119.723829,82.4608961 110.672922,79.7470276 107.655952,78.7470827 C104.638983,77.7471378 103.489572,77.3187506 102.052902,76.3188057 C100.616232,75.3192355 92.2834707,70.3198857 86.2495322,69.4631113 C80.2155938,68.6059621 74.3252846,69.4631113 73.1758733,76.8903634 C73.1758733,76.8903634 67.3078059,76.5054521 64.1249656,80.4610063 C61.2516257,84.032024 62.5442894,87.8882584 64.8431121,89.6025567 C67.1419348,91.3164803 70.5897919,93.6015868 70.5897919,93.6015868 C70.5897919,93.6015868 60.3894729,92.7448124 59.6709494,103.457116 C59.6709494,103.457116 54.0407563,102.939903 51.4821945,108.028079 C49.758266,111.455926 51.7694531,113.598236 53.0624938,115.026943 C54.3555345,116.454901 55.7922044,118.740382 55.7922044,118.740382 C55.7922044,118.740382 53.4933817,120.454306 54.2119052,122.596991 C54.9300517,124.739302 59.2400615,129.881448 60.3894729,133.166499 C61.5388843,136.45155 64.5558535,140.165364 65.8488942,142.308049 C67.1419348,144.45036 70.2844383,147.608357 72.3137205,149.878097 C74.6125432,152.44917 78.347659,158.019703 81.2209989,163.018678 C84.0943388,168.017653 89.1228722,175.302484 92.1398414,177.730386 C95.1568106,180.158663 103.633201,188.014302 104.638983,189.442635 C104.638983,189.442635 103.058684,196.155908 105.788018,199.869721 C108.517728,203.58316 114.120779,204.154718 117.137748,204.583105 C120.154717,205.011492 125.039621,206.011437 125.039621,206.011437 C125.039621,206.011437 130.642672,211.58197 132.51023,213.153098 C134.377787,214.724225 135.670828,218.438039 137.682392,220.723145 C139.693579,223.008627 142.854178,225.579699 147.882711,226.008087 C152.910868,226.436474 154.778426,225.008142 159.232442,224.579755 C163.686081,224.151367 167.126775,223.618038 172.44973,224.579755 C175.610329,225.150937 180.063968,224.151367 184.804865,224.151367 C189.54614,224.151367 196.441854,223.865401 203.91284,223.008627 C211.383448,222.151478 221.008873,221.865886 230.203787,224.151367 C239.398324,226.436474 249.02111,229.64132 254.627176,233.292543 C258.793557,236.006412 261.235632,240.005816 265.976907,242.576889 C270.717805,245.147587 278.188413,250.146937 281.636647,253.71758 C285.084504,257.288598 344.548088,317.470752 346.703282,319.327472 L393.690373,370.954964 L431.623966,276.193566 C431.623966,276.193566 349.159758,230.007492 338.81581,224.151367 C328.471862,218.294868 316.116349,209.296488 308.78937,203.725956 C301.462391,198.155798 283.935093,185.871992 280.918124,183.443715 C280.918124,183.443715 318.279836,188.244799 330.052161,190.014192 C342.407673,191.870912 413.752229,202.401816 413.752229,202.401816 L413.895858,111.598721 C413.895858,111.598721 346.717683,112.741462 329.334015,113.741407 Z" id="Stroke-4" stroke="url(#linearGradient-2)" transform="translate(241.219349, 218.602398) scale(-1, 1) rotate(-22.000000) translate(-241.219349, -218.602398) "></path>
                    </g>
                    <g id="bichobola-open-2" transform="translate(303.000000, 302.290901)" sketch:type="MSShapeGroup">
                        <path d="M111.285372,55.7450362 C113.690396,62.4890006 114.968339,69.9401291 114.968339,77.851574 C114.968339,110.254471 88.6140581,132.256003 56.1399243,132.256003 C23.5950406,132.256003 -0.070749747,111.20646 -0.070749747,78.8035634 C-0.070749747,51.5915175 20.087878,29.1539317 45.8015399,22.663404 C45.4459457,22.1171901 45.0553307,21.4803933 44.7845899,21.0142836 C41.7423507,15.5844183 41.8131005,9.80196448 44.8907145,8.07428009 C47.9683285,6.38185457 52.9208108,9.41411696 55.927675,14.8439822 C57.0451769,16.8609305 57.7243024,18.9549856 58.0090848,20.8408706 L58.0090848,20.8408706 C58.2677435,20.8282613 58.5267042,20.817264 58.785954,20.8078885 C59.0174932,18.0825922 59.778149,15.0920262 61.0924065,12.1290496 C64.877518,3.66692196 71.8109932,-1.48087233 76.5866011,0.634659571 C81.3622091,2.75019147 82.1758312,11.3533545 78.3907197,19.8154822 C77.9111137,20.893836 77.378757,21.9196121 76.8047377,22.883969 C91.2945714,26.9739293 102.432196,36.7347056 108.838252,49.9093135 C111.869842,48.2860427 114.652268,46.6047043 115.498962,46.0480777 C105.417123,35.8935246 119.284073,23.0945566 128.057042,32.8965211 C131.700654,36.9865494 129.93191,42.310638 127.844793,44.8140175 C128.516915,45.1313472 130.851657,45.3781593 132.089778,45.448677 C137.325259,45.6249714 136.759261,52.0068259 132.089778,51.8657905 C129.153663,51.7952727 125.191677,51.0548366 121.937189,49.5387054 C117.577576,52.2162771 114.17054,54.1966974 111.285372,55.7450362 Z M122.715436,41.288131 C125.651551,38.3616452 122.609312,35.3646416 120.239195,35.9640423 C117.621454,36.6339608 116.701708,40.4771771 121.229692,42.4516735 C121.901814,42.0990849 122.290938,41.7112373 122.715436,41.288131 L122.715436,41.288131 Z" id="cuerpo" fill="#473F3D"></path>
                        <ellipse id="ojo" fill="#F0F0E8" cx="30.0686425" cy="59.5874819" rx="4.24498482" ry="4.2310638"></ellipse>
                    </g>
                    <g id="Imported-Layers-Copy-2" transform="translate(221.433664, 0.447443)">
                        <path d="M0.146065461,74.3765324 C0.146065461,65.0593078 7.46814381,56.9265718 16.8382188,56.9265718 C26.2081316,56.9265718 32.9410847,64.2834637 32.9410847,73.6032686 C32.9410847,82.9193644 27.2031925,89.291252 17.8331175,89.291252 C8.46790595,89.291252 0.146065461,83.6939183 0.146065461,74.3765324" id="Fill-1" fill="#70B262" sketch:type="MSShapeGroup"></path>
                        <path d="M151.43827,207.20907 C151.43827,189.720406 165.198577,174.44655 182.78917,174.44655 C200.370199,174.44655 213.014994,188.26209 213.014994,205.758011 C213.014994,223.251352 202.244247,235.212349 184.64879,235.212349 C167.067923,235.212349 151.43827,224.702572 151.43827,207.20907" id="Fill-2" fill="#70B262" sketch:type="MSShapeGroup"></path>
                        <path d="M172.182646,222.70144 C172.182646,223.563722 172.882982,224.265223 173.752404,224.265223 C174.621988,224.265223 175.322324,223.563722 175.322324,222.70144 L175.322324,217.697399 L172.182646,217.697399 L172.182646,222.70144 L172.182646,222.70144 Z M177.910973,222.70144 C177.910973,223.563722 178.616173,224.265223 179.480731,224.265223 C180.350153,224.265223 181.05519,223.563722 181.05519,222.70144 L181.05519,217.697399 L177.910973,217.697399 L177.910973,222.70144 L177.910973,222.70144 Z M183.639463,222.70144 C183.639463,223.563722 184.3445,224.265223 185.213922,224.265223 C186.07848,224.265223 186.778816,223.563722 186.778816,222.70144 L186.778816,217.697399 L183.639463,217.697399 L183.639463,222.70144 L183.639463,222.70144 Z M189.372329,222.70144 C189.372329,223.563722 190.067964,224.265223 190.946951,224.265223 C191.811347,224.265223 192.516709,223.563722 192.516709,222.70144 L192.516709,217.697399 L189.372329,217.697399 L189.372329,222.70144 L189.372329,222.70144 Z M175.322324,187.305952 C175.322324,186.448347 174.621988,185.746846 173.752404,185.746846 C172.882982,185.746846 172.182646,186.448347 172.182646,187.305952 L172.182646,189.744273 L175.322324,189.744273 L175.322324,187.305952 L175.322324,187.305952 Z M181.05519,187.305952 C181.05519,186.448347 180.350153,185.746846 179.480731,185.746846 C178.616173,185.746846 177.910973,186.448347 177.910973,187.305952 L177.910973,189.744273 L181.05519,189.744273 L181.05519,187.305952 L181.05519,187.305952 Z M186.778816,187.305952 C186.778816,186.448347 186.07848,185.746846 185.213922,185.746846 C184.3445,185.746846 183.639463,186.448347 183.639463,187.305952 L183.639463,189.744273 L186.778816,189.744273 L186.778816,187.305952 L186.778816,187.305952 Z M192.516709,187.305952 C192.516709,186.448347 191.811347,185.746846 190.946951,185.746846 C190.067964,185.746846 189.372329,186.448347 189.372329,187.305952 L189.372329,189.744273 L192.516709,189.744273 L192.516709,187.305952 L192.516709,187.305952 Z M161.605302,197.484491 L161.605302,199.668175 C162.324929,198.971512 163.295673,198.495943 164.363037,198.37564 L164.363037,197.484491 C164.363037,197.191473 164.599725,196.958607 164.889586,196.958607 L168.420447,196.958607 L168.420447,194.217431 L164.889586,194.217431 C163.073414,194.217431 161.605302,195.678166 161.605302,197.484491 L161.605302,197.484491 Z M164.363037,199.829279 C163.658,199.939745 163.039856,200.275982 162.56648,200.746875 C162.42155,200.891045 162.295911,201.04473 162.179999,201.208091 C161.817672,201.736394 161.605302,202.36839 161.605302,203.057958 L161.605302,205.241319 C162.324929,204.537561 163.295673,204.066829 164.363037,203.946687 L164.363037,203.057958 C164.363037,202.760102 164.599725,202.524656 164.889586,202.524656 L168.420447,202.524656 L168.420447,199.781061 L164.889586,199.781061 C164.710935,199.781061 164.532123,199.800251 164.363037,199.829279 L164.363037,199.829279 Z M164.889586,205.352108 C164.710935,205.352108 164.532123,205.3663 164.363037,205.392908 C163.681993,205.503374 163.068712,205.823001 162.595337,206.281638 C162.440841,206.433065 162.300612,206.598845 162.179999,206.77672 C161.817672,207.300346 161.605302,207.9346 161.605302,208.621587 L161.605302,210.807529 C162.324929,210.106189 163.295673,209.635297 164.363037,209.512897 L164.363037,208.621587 C164.363037,208.333246 164.599725,208.092962 164.889586,208.092962 L168.420447,208.092962 L168.420447,205.352108 L164.889586,205.352108 L164.889586,205.352108 Z M164.363037,210.961214 C163.681993,211.072003 163.068712,211.389049 162.595337,211.852524 C162.440841,211.999113 162.300612,212.167312 162.179999,212.342768 C161.817672,212.866556 161.605302,213.502906 161.605302,214.185216 L161.605302,215.271172 C161.605302,216.030245 162.218582,216.647727 162.981657,216.647727 C163.749757,216.647727 164.363037,216.030245 164.363037,215.271172 L164.363037,214.185216 C164.363037,213.896875 164.599725,213.66159 164.889586,213.66159 L168.420447,213.66159 L168.420447,210.918318 L164.889586,210.918318 C164.710935,210.918318 164.532123,210.934928 164.363037,210.961214 L164.363037,210.961214 Z M200.186685,194.217431 L196.520621,194.217431 L196.520621,196.958607 L200.186685,196.958607 C200.481248,196.958607 200.708209,197.191473 200.708209,197.484491 L200.708209,198.37564 C201.780436,198.495943 202.741777,198.971512 203.465944,199.668175 L203.465944,197.484491 C203.465944,195.678166 202.002534,194.217431 200.186685,194.217431 L200.186685,194.217431 Z M202.514654,200.746875 C202.036416,200.275982 201.408545,199.939745 200.708209,199.829279 C200.539123,199.800251 200.365336,199.781061 200.186685,199.781061 L196.520621,199.781061 L196.520621,202.524656 L200.186685,202.524656 C200.481248,202.524656 200.708209,202.760102 200.708209,203.057958 L200.708209,203.946687 C201.780436,204.066829 202.741777,204.537561 203.465944,205.241319 L203.465944,203.057958 C203.465944,202.36839 203.253574,201.736394 202.896273,201.208091 C202.780361,201.04473 202.654722,200.891045 202.514654,200.746875 L202.514654,200.746875 Z M202.475909,206.281638 C202.007559,205.823001 201.393955,205.503374 200.708209,205.392908 C200.539123,205.3663 200.365336,205.352108 200.186685,205.352108 L196.520621,205.352108 L196.520621,208.092962 L200.186685,208.092962 C200.481248,208.092962 200.708209,208.333246 200.708209,208.621587 L200.708209,209.512897 C201.780436,209.635297 202.741777,210.106189 203.465944,210.807529 L203.465944,208.621587 C203.465944,207.9346 203.253574,207.300346 202.896273,206.77672 C202.775335,206.598845 202.630404,206.433065 202.475909,206.281638 L202.475909,206.281638 Z M202.475909,211.852524 C202.007559,211.389049 201.393955,211.067004 200.708209,210.959118 C200.539123,210.932509 200.365336,210.918318 200.186685,210.918318 L196.520621,210.918318 L196.520621,213.66159 L200.186685,213.66159 C200.481248,213.66159 200.708209,213.896875 200.708209,214.185216 L200.708209,215.278268 C200.708209,216.030245 201.331216,216.647727 202.089589,216.647727 C202.857527,216.647727 203.465944,216.030245 203.465944,215.278268 L203.465944,214.185216 C203.465944,213.502906 203.253574,212.866556 202.896273,212.342768 C202.775335,212.167312 202.630404,211.999113 202.475909,211.852524 L202.475909,211.852524 Z M194.342446,191.882481 C194.062311,191.606235 193.666103,191.442874 193.255628,191.442874 L171.695004,191.442874 C171.279504,191.442874 170.883457,191.606235 170.59846,191.882481 C170.376362,192.103413 170.202575,192.406107 170.149402,192.744924 C170.134811,192.824105 170.125246,192.910704 170.125246,192.996981 L170.125246,214.454367 C170.125246,214.680138 170.17842,214.896555 170.265152,215.098135 C170.352207,215.271172 170.463256,215.431953 170.59846,215.564029 C170.883457,215.838179 171.279504,216.001379 171.695004,216.001379 L193.255628,216.001379 C193.666103,216.001379 194.062311,215.838179 194.342446,215.564029 C194.482513,215.431953 194.5934,215.271172 194.670891,215.098135 C194.767511,214.896555 194.820522,214.682395 194.820522,214.454367 L194.820522,192.996981 C194.820522,192.910704 194.806094,192.824105 194.79653,192.744924 C194.73833,192.406107 194.579134,192.103413 194.342446,191.882481 L194.342446,191.882481 Z M176.756553,198.013117 L188.237364,198.013117 L188.237364,209.375822 L176.756553,209.375822 L176.756553,198.013117 Z" id="Fill-3" fill="#FFFFFF" sketch:type="MSShapeGroup"></path>
                        <path d="M54.8786254,72.9882053 C83.5345288,64.7733856 115.011068,79.9127468 123.270008,108.42546 C131.538999,136.934787 114.84182,163.929356 86.1716508,172.149981 C57.5157473,180.361091 32.8493277,168.503304 24.5853622,139.980753 C16.3213967,111.469169 26.2034303,81.2027025 54.8786254,72.9882053" id="Fill-4" fill="#70B262" sketch:type="MSShapeGroup"></path>
                        <path d="M85.5535069,102.264829 L92.2814344,95.568316 L99.9126657,103.168072 L93.1845761,109.858458 L96.0632491,112.717196 L102.791339,106.022134 L104.974539,108.203399 C106.046767,109.27597 107.775721,109.27597 108.84341,108.205818 C109.910611,107.145019 109.925202,105.410618 108.848111,104.344014 L91.1803505,86.7664931 C90.1176878,85.7081134 88.3739807,85.7179506 87.2970519,86.7784267 C86.2392526,87.8450309 86.2441161,89.5712074 87.3114801,90.6279744 L89.4124883,92.7240919 L82.698989,99.4049626 L85.5535069,102.264829" id="Fill-5" fill="#FFFFFF" sketch:type="MSShapeGroup"></path>
                        <path d="M46.1895948,152.369585 C47.1024634,151.475857 59.8148598,138.807392 59.8148598,138.807392 C59.8148598,138.807392 65.9825185,141.559373 67.3687624,142.112833 C68.7405781,142.640168 70.1508149,142.512769 70.9865169,141.678064 C71.8316215,140.833682 91.943425,120.804455 91.943425,120.804455 L97.2273957,126.04878 C98.2945976,127.115385 100.023877,127.115385 101.091241,126.043942 C102.158605,124.982176 102.158605,123.260999 101.091241,122.206328 L93.8077455,114.965708 L93.8367641,114.935713 L90.957929,112.077136 L90.9243712,112.103422 L83.2978412,104.509794 L83.3317232,104.488185 L80.4530502,101.625899 L80.428733,101.647347 L73.2420205,94.5018731 C72.1600661,93.436559 70.4309494,93.436559 69.3634232,94.4921972 C68.2911957,95.5576726 68.2911957,97.2728831 69.3780136,98.3370683 L74.5652017,103.498504 C74.5652017,103.498504 54.2457291,123.767692 53.5940275,124.403075 C52.6809968,125.311317 52.4974828,126.656426 53.0481869,127.879295 C53.5890019,129.094908 56.1197765,135.304886 56.1197765,135.304886 L46.4985857,144.879166 C46.4985857,144.879166 45.0351751,150.879984 44.8902445,151.634541 C44.7453138,152.395871 45.2718628,153.277505 46.1895948,152.369585 L46.1895948,152.369585 Z M67.0644728,120.609809 L72.4980755,126.016366 L76.7146822,121.828969 L71.285943,116.417896 L74.0097963,113.696233 L79.4482625,119.101501 L84.843444,113.729937 L89.0743168,117.937331 L69.6051364,137.34069 L65.3739394,133.127007 L69.7691966,128.71642 L64.3355939,123.325666 L67.0644728,120.609809 L67.0644728,120.609809 Z" id="Fill-6" fill="#FFFFFF" sketch:type="MSShapeGroup"></path>
                        <path d="M113.702153,72.9291825 C113.702153,63.6372764 121.415414,56.9528579 130.751607,56.9528579 C140.097527,56.9528579 146.497172,64.4923014 146.497172,73.786949 C146.497172,83.0801452 138.928842,89.3896234 129.582922,89.3896234 C120.241703,89.3896234 113.702153,82.2247977 113.702153,72.9291825" id="Fill-7" fill="#70B262" sketch:type="MSShapeGroup"></path>
                        <path d="M124.849493,82.8988838 C126.370941,82.8988838 127.89255,82.3173635 129.051509,81.1678693 L138.315237,71.9599821 C139.469657,70.8045211 140.054243,69.2897626 140.054243,67.7762941 C140.054243,66.2713727 139.469657,64.7517762 138.315237,63.602282 C137.156278,62.4494012 135.625103,61.8690098 134.113383,61.8690098 C132.596636,61.8690098 131.065786,62.4494012 129.911366,63.6035721 L120.65234,72.8150071 C119.498082,73.9646626 118.908795,75.4840978 118.908795,76.9903094 C118.908795,78.5015201 119.488193,80.0172463 120.65234,81.1678693 C121.811623,82.3222015 123.332909,82.8988838 124.849493,82.8988838 L124.849493,82.8988838 Z M121.787306,73.9428919 L131.046494,64.7301667 C131.896462,63.8835275 133.002572,63.4664972 134.113383,63.4655296 C135.224193,63.4664972 136.335004,63.8835275 137.180271,64.7267802 C137.248035,64.7938662 137.291482,64.8719183 137.359084,64.9427135 C135.581819,64.3818351 133.572568,64.7770947 132.16687,66.1750977 L127.496342,70.8188737 L128.699072,72.0140058 L132.336118,75.6414921 L127.921407,80.0411135 C127.071439,80.8856563 125.965329,81.3060731 124.849493,81.3060731 C123.738682,81.3060731 122.632573,80.8856563 121.787306,80.0411135 C120.937338,79.1931841 120.517298,78.0928756 120.507571,76.9903094 C120.517298,75.8866143 120.937338,74.7887248 121.787306,73.9428919 L121.787306,73.9428919 Z" id="Fill-8" fill="#FFFFFF" sketch:type="MSShapeGroup"></path>
                        <path d="M229.803606,33.9795841 C229.803606,21.091477 239.941618,9.84504373 252.890703,9.84504373 C265.844326,9.84504373 275.156688,20.0260017 275.156688,32.9083032 C275.156688,45.7930238 267.216141,54.6021036 254.262194,54.6021036 C241.308571,54.6021036 229.803606,46.8643046 229.803606,33.9795841" id="Fill-9" fill="#70B262" sketch:type="MSShapeGroup"></path>
                        <path d="M248.031635,39.5890126 C247.6886,39.5865936 247.336324,39.7173792 247.070456,39.9818532 C246.809775,40.2448758 246.669708,40.5956264 246.669708,40.9402488 C246.669708,41.2851939 246.809775,41.634493 247.070456,41.896548 C247.336324,42.1594094 247.679035,42.290195 248.031635,42.290195 C248.379371,42.290195 248.72727,42.1594094 248.997677,41.896548 C249.25852,41.6335254 249.38886,41.2861615 249.384159,40.941539 C249.38886,40.5956264 249.25852,40.2460047 248.98795,39.9818532 C248.72727,39.7173792 248.379371,39.5865936 248.031635,39.5890126" id="Fill-10" fill="#FFFFFF" sketch:type="MSShapeGroup"></path>
                        <path d="M261.212543,25.0900332 C261.555578,25.0900332 261.903314,24.9626342 262.168858,24.6971926 C262.439428,24.436589 262.574632,24.0880962 262.569768,23.7481503 C262.574632,23.3998188 262.434565,23.0527773 262.168858,22.7910448 C261.903314,22.5268934 261.555578,22.3911086 261.212543,22.3911086 C260.864807,22.3911086 260.516908,22.5206041 260.25639,22.7849168 C259.990684,23.0527773 259.85548,23.3940132 259.85548,23.7447638 C259.85548,24.0880962 259.98582,24.436589 260.241637,24.6971926 C260.512207,24.9639243 260.864807,25.0900332 261.212543,25.0900332" id="Fill-11" fill="#FFFFFF" sketch:type="MSShapeGroup"></path>
                        <path d="M261.03373,29.3599978 C261.386492,29.3599978 261.729365,29.2267932 261.999935,28.9637706 C262.265641,28.6972002 262.395819,28.3509651 262.395819,28.0076327 C262.395819,27.6630102 262.260615,27.3120984 261.999935,27.0552039 C261.734066,26.7896011 261.386492,26.6538162 261.03373,26.6538162 C260.686156,26.6538162 260.333394,26.7896011 260.077577,27.0552039 C259.811871,27.3120984 259.681531,27.6630102 259.681531,28.0076327 C259.681531,28.3509651 259.811871,28.6972002 260.077577,28.9637706 C260.343121,29.2267932 260.69102,29.3599978 261.03373,29.3599978" id="Fill-12" fill="#FFFFFF" sketch:type="MSShapeGroup"></path>
                        <path d="M244.018158,38.3014759 C244.365894,38.3014759 244.723195,38.1694002 244.984038,37.9062163 C245.249582,37.6431937 245.379923,37.293572 245.379923,36.9524973 C245.379923,36.6078749 245.249582,36.2619622 244.984038,35.9974883 C244.718494,35.7357558 244.365894,35.5988421 244.018158,35.5988421 C243.675123,35.5988421 243.322523,35.7357558 243.06168,35.9974883 C242.791273,36.2619622 242.660771,36.6078749 242.660771,36.9524973 C242.660771,37.2995388 242.795974,37.6469028 243.06168,37.9073452 C243.322523,38.1694002 243.67026,38.3014759 244.018158,38.3014759" id="Fill-13" fill="#FFFFFF" sketch:type="MSShapeGroup"></path>
                        <path d="M258.362889,32.1011738 C258.551266,32.2861443 258.797518,32.3809679 259.048796,32.3809679 C259.295049,32.3809679 259.541463,32.2861443 259.724815,32.1011738 C260.101732,31.7262336 260.101732,31.1245553 259.724815,30.7521953 L254.26722,25.3219318 C253.895166,24.9542484 253.286587,24.9542484 252.914696,25.3219318 C252.538103,25.7002586 252.538103,26.298389 252.914696,26.6718779 L258.362889,32.1011738" id="Fill-14" fill="#FFFFFF" sketch:type="MSShapeGroup"></path>
                        <path d="M250.852271,39.5711122 C251.045674,39.7594693 251.287063,39.8497775 251.533315,39.8497775 C251.779568,39.8497775 252.025982,39.7594693 252.209658,39.5711122 C252.586251,39.1974621 252.586251,38.5969127 252.209658,38.217457 L246.761303,32.7928378 C246.38471,32.4228967 245.781157,32.4228967 245.40424,32.7928378 C245.027647,33.167778 245.027647,33.7718753 245.40424,34.1429452 L250.852271,39.5711122" id="Fill-15" fill="#FFFFFF" sketch:type="MSShapeGroup"></path>
                        <path d="M257.024955,25.3685372 C257.372853,25.3685372 257.72059,25.2342038 257.986134,24.9760191 C258.25184,24.7092875 258.387044,24.362246 258.387044,24.0139144 C258.387044,23.6726785 258.25184,23.3219279 257.986134,23.0613243 C257.72059,22.7981405 257.372853,22.6684837 257.024955,22.6684837 C256.677219,22.6684837 256.329644,22.7947539 256.063938,23.063582 C255.803095,23.328056 255.66319,23.6726785 255.66319,24.0139144 C255.66319,24.362246 255.79807,24.7068685 256.063938,24.974729 C256.329644,25.2342038 256.677219,25.3685372 257.024955,25.3685372" id="Fill-16" fill="#FFFFFF" sketch:type="MSShapeGroup"></path>
                        <path d="M247.664769,48.0271838 L247.6886,48.0271838 C247.761227,48.0271838 247.804674,48.0246036 247.814401,48.0246036 C248.055952,48.018798 248.287614,47.9167175 248.461401,47.7448095 L267.940633,28.3704781 C268.11442,28.1926032 268.211202,27.9642525 268.225468,27.7217106 L268.225468,27.5993107 C268.230494,26.8868436 268.003533,23.6702595 264.694932,20.3814289 C261.386492,17.084535 258.150356,16.8598934 257.430728,16.866989 C257.3534,16.866989 257.300388,16.8706981 257.271207,16.8706981 C257.044247,16.8885985 256.827175,16.9895502 256.667654,17.1516211 L237.183721,36.5249848 C237.029226,36.6833467 236.932443,36.8887978 236.913151,37.1048924 C236.903587,37.1385967 236.903587,37.1998773 236.903587,37.293572 C236.89386,38.0120059 237.120983,41.2272999 240.434123,44.5161305 C243.709005,47.7738371 246.911259,48.0271838 247.664769,48.0271838 L247.664769,48.0271838 Z M257.730317,18.7911985 C258.570558,18.8632838 260.859943,19.2703157 263.332843,21.7281497 C265.810768,24.1951759 266.216217,26.4785216 266.288845,27.3120984 L247.399225,46.1016842 C246.568224,46.0355658 244.274137,45.6248248 241.786647,43.1673132 C239.309046,40.696578 238.89841,38.4177477 238.835671,37.5794942 L257.730317,18.7911985 L257.730317,18.7911985 Z" id="Fill-17" fill="#FFFFFF" sketch:type="MSShapeGroup"></path>
                        <path d="M243.747588,42.4717789 C244.095325,42.4717789 244.443061,42.3311562 244.708929,42.0718427 C244.964746,41.8052723 245.100112,41.4593597 245.100112,41.1144146 C245.100112,40.7673732 244.969448,40.4227507 244.713631,40.1606957 L244.612147,40.2543904 L244.713631,40.156019 C244.443061,39.8965442 244.095325,39.7620495 243.747588,39.7620495 C243.400014,39.7620495 243.047252,39.9013822 242.791273,40.1606957 C242.51584,40.4261372 242.3855,40.7723724 242.3855,41.1144146 C242.3855,41.4640363 242.51584,41.8052723 242.791273,42.0694237 C243.047252,42.3311562 243.400014,42.4717789 243.747588,42.4717789" id="Fill-18" fill="#FFFFFF" sketch:type="MSShapeGroup"></path>
                        <path d="M231.199576,130.717552 C216.038273,130.717552 202.712597,142.646135 202.712597,157.724054 C202.712597,172.803425 213.744186,182.59509 228.910191,182.59509 C244.071332,182.59509 256.348936,172.35898 256.348936,157.284447 C256.348936,142.200561 246.355854,130.717552 231.199576,130.717552" id="Fill-19" fill="#70B262" sketch:type="MSShapeGroup"></path>
                        <path d="M237.03879,153.493761 L234.005622,156.515699 L235.594671,158.093995 L238.622976,155.074477 L241.376173,157.813072 L238.342842,160.830172 L239.931892,162.411049 L242.965222,159.39395 L244.906709,161.320578 C245.703666,162.118031 245.703666,163.420082 244.906709,164.212698 L238.043578,171.039997 C237.241596,171.83745 235.937706,171.83745 235.135887,171.039997 L224.766049,160.724705 L223.177,162.30526 L233.546837,172.620712 C235.22278,174.287866 237.956522,174.287866 239.637329,172.620712 L246.491058,165.790994 C248.171864,164.126421 248.171864,161.411854 246.491058,159.739701 L236.126084,149.429086 L234.537034,151.009641 L237.03879,153.493761 L237.03879,153.493761 Z M220.452984,160.931285 L220.452984,160.931285 C220.457686,160.940961 220.462711,160.943219 220.472276,160.952733 L220.472276,160.955314 C220.476977,160.955314 220.481841,160.960151 220.491568,160.967247 L220.496269,160.967247 C220.501295,160.974343 220.510859,160.979342 220.510859,160.984019 C220.646063,161.094646 220.800721,161.166731 220.964943,161.205112 L220.974508,161.205112 C220.979533,161.205112 220.984235,161.209789 220.993799,161.209789 C220.998825,161.209789 221.003526,161.212208 221.013091,161.212208 L221.018117,161.212208 C221.351425,161.274779 221.713427,161.166731 221.97427,160.911933 L231.745255,151.192354 L234.763995,148.184607 C234.82187,148.127036 234.870018,148.069303 234.913627,148.002056 L234.913627,147.997218 C234.918491,147.992541 234.923354,147.985445 234.923354,147.983026 C234.923354,147.978027 234.928217,147.978027 234.928217,147.97335 C234.932919,147.970931 234.937944,147.968513 234.942484,147.958837 L234.942484,147.95416 C234.942484,147.946742 234.942484,147.944484 234.947509,147.942065 C234.947509,147.934647 234.952535,147.92997 234.957074,147.922875 C234.957074,147.920456 234.957074,147.920456 234.962099,147.920456 C235.039266,147.769189 235.082713,147.59841 235.082713,147.418439 C235.082713,147.125099 234.966801,146.853851 234.763995,146.652109 L234.763995,146.64711 C234.696231,146.589539 234.628791,146.531806 234.5513,146.488748 L234.546599,146.488748 C234.541736,146.479072 234.537034,146.479072 234.527307,146.474235 L234.522444,146.471816 C234.517743,146.467139 234.512717,146.464559 234.508016,146.464559 C234.508016,146.459721 234.503152,146.459721 234.498451,146.459721 L234.488724,146.450045 C234.483861,146.450045 234.478835,146.445529 234.474134,146.445529 L234.46927,146.44053 C234.459543,146.435854 234.459543,146.435854 234.445277,146.431016 C234.43555,146.426339 234.430687,146.426339 234.42096,146.423759 C234.42096,146.42134 234.416421,146.42134 234.416421,146.418921 C234.411395,146.416663 234.401668,146.414244 234.401668,146.414244 L234.396805,146.414244 C234.392104,146.407148 234.387078,146.404729 234.377513,146.402149 L234.372812,146.402149 C234.367786,146.397311 234.358222,146.395054 234.35352,146.392635 L234.343793,146.392635 C234.334229,146.387635 234.334229,146.387635 234.32434,146.385378 L234.319638,146.385378 C234.309911,146.382959 234.300347,146.378121 234.300347,146.378121 C234.300347,146.373444 234.295483,146.373444 234.29062,146.373444 C234.285756,146.373444 234.285756,146.373444 234.276029,146.368445 C234.27149,146.368445 234.266465,146.368445 234.256738,146.363768 C234.078087,146.320549 233.899437,146.320549 233.72565,146.363768 L233.715923,146.363768 C233.711059,146.368445 233.706034,146.368445 233.696469,146.368445 L233.686904,146.373444 C233.686904,146.373444 233.682041,146.373444 233.677177,146.378121 C233.66745,146.382959 233.662749,146.382959 233.657886,146.385378 L233.624004,146.392635 C233.575856,146.414244 233.527545,146.431016 233.484099,146.455044 L233.479073,146.455044 C233.474372,146.459721 233.464807,146.464559 233.459781,146.467139 C233.459781,146.467139 233.459781,146.469235 233.45508,146.469235 C233.450217,146.474235 233.44049,146.476654 233.44049,146.476654 L233.435788,146.48391 C233.426224,146.488748 233.421198,146.491006 233.416497,146.491006 C233.411633,146.495844 233.411633,146.495844 233.411633,146.498424 L233.401906,146.503101 C233.392342,146.507939 233.387316,146.510197 233.382615,146.515034 C233.382615,146.517615 233.382615,146.517615 233.37305,146.517615 C233.368024,146.52213 233.363323,146.527129 233.363323,146.531806 L233.35846,146.531806 C233.310149,146.56551 233.262001,146.60631 233.218392,146.652109 L223.447407,156.367013 L220.433693,159.374436 C220.419102,159.379436 220.419102,159.386531 220.409538,159.39395 L220.409538,159.401045 C220.399811,159.405722 220.390246,159.408141 220.390246,159.41314 L220.390246,159.417817 C220.38522,159.424912 220.375656,159.42975 220.370954,159.437007 C220.365929,159.441845 220.361227,159.448941 220.351663,159.456036 C220.259581,159.573921 220.187116,159.710996 220.148533,159.857263 L220.148533,159.862262 C220.143831,159.869358 220.143831,159.874357 220.143831,159.881452 L220.143831,159.898224 L220.134267,159.903062 C220.105086,160.032719 220.105086,160.167375 220.12454,160.306546 L220.12454,160.325898 C220.153558,160.508449 220.24029,160.683744 220.351663,160.828076 L220.370954,160.844686 L220.370954,160.851943 C220.375656,160.854362 220.38522,160.8592 220.390246,160.864038 L220.390246,160.873552 C220.390246,160.875971 220.399811,160.883067 220.409538,160.883067 L220.409538,160.892743 C220.419102,160.895162 220.419102,160.902257 220.433693,160.911933 C220.433693,160.919352 220.448121,160.926447 220.452984,160.931285 L220.452984,160.931285 Z M220.882751,144.033495 C220.308054,143.651459 219.733357,143.233461 219.139044,142.78192 C218.516199,142.309737 217.574311,142.506802 216.922123,143.15299 C216.279987,143.799338 216.076857,144.734996 216.555258,145.357155 C217.009179,145.940932 217.419654,146.510197 217.810999,147.086718 C215.685674,150.562938 216.120466,155.156077 219.144069,158.163984 L231.996371,145.373926 C228.987195,142.372308 224.37973,141.935119 220.882751,144.033495 L220.882751,144.033495 Z" id="Fill-20" fill="#FFFFFF" sketch:type="MSShapeGroup"></path>
                        <path d="M75.2222531,203.639317 C75.2222531,185.273857 89.6587407,169.250443 108.113893,169.250443 C126.57861,169.250443 139.851275,183.750551 139.851275,202.116011 C139.851275,220.474375 128.534687,233.031245 110.074834,233.031245 C91.6149804,233.031245 75.2222531,221.999777 75.2222531,203.639317" id="Fill-27" fill="#70B262" sketch:type="MSShapeGroup"></path>
                        <path d="M87.2728968,198.642371 C86.7029011,204.892988 89.190391,210.764471 94.0444332,213.604019 L93.0589371,215.710619 C92.4310664,217.05363 93.010789,218.641442 94.3631509,219.268439 C94.7350423,219.438895 95.121362,219.513561 95.498279,219.513561 C96.5123072,219.513561 97.4882385,218.939459 97.9372966,217.966388 L99.1834732,215.290363 C99.7581703,215.359868 100.352321,215.386477 100.9609,215.386477 L118.647952,215.386477 L119.845819,217.951874 C120.294877,218.932202 121.275509,219.508884 122.289862,219.508884 C122.666455,219.508884 123.052936,219.438895 123.419964,219.268439 C124.767463,218.641442 125.347023,217.05363 124.728879,215.710619 L124.216921,214.61289 C128.863294,211.737381 128.573433,201.866373 128.573433,201.866373 C97.7344909,201.866373 87.2728968,198.642371 87.2728968,198.642371" id="Fill-28" fill="#FFFFFF" sketch:type="MSShapeGroup"></path>
                        <path d="M128.573433,195.944575 L127.815059,195.944575 C127.897252,194.991018 127.955289,193.712834 127.882823,192.360308 C127.689745,188.293376 126.438705,185.705885 124.18774,184.665889 C123.033483,184.135006 120.671794,183.637666 117.773829,186.167263 C116.368131,187.397228 115.416842,188.82184 115.378096,188.884249 C114.861436,189.677026 115.083534,190.748468 115.885191,191.269998 C116.686849,191.793302 117.759239,191.567854 118.285626,190.772497 C119.087446,189.56656 121.309391,187.150009 122.72433,187.798454 C124.37628,188.557527 124.651551,192.742505 124.337696,195.930223 C97.5799955,195.661072 87.9586425,192.838619 87.8668855,192.809591 C86.8042228,192.487868 85.6789838,193.081161 85.3507013,194.140669 C85.0219324,195.19276 85.6112198,196.316935 86.6738825,196.643658 C87.1182392,196.778152 97.7828011,199.963612 128.573433,199.963612 C129.689107,199.963612 130.587385,199.06053 130.587385,197.955384 C130.587385,196.840723 129.689107,195.944575 128.573433,195.944575" id="Fill-29" fill="#FFFFFF" sketch:type="MSShapeGroup"></path>
                        <path d="M221.631397,96.3923782 C221.631397,78.0906179 236.039028,62.1105842 254.436305,62.1105842 C272.838284,62.1105842 286.072041,76.5711826 286.072041,94.8706853 C286.072041,113.179541 274.794361,125.701739 256.387357,125.701739 C237.990404,125.701739 221.631397,114.703976 221.631397,96.3923782" id="Fill-30" fill="#70B262" sketch:type="MSShapeGroup"></path>
                        <path d="M246.858086,76.2336558 C246.901532,76.8234005 246.862949,77.4852305 246.877377,78.1098084 C245.264335,78.1589941 243.520628,78.0906179 241.912286,78.1410937 C241.859113,78.5757019 241.907585,79.0898135 241.887969,79.5573196 C243.506037,79.6123108 245.240017,79.5390967 246.858086,79.5931203 C246.901532,80.1240035 246.862949,80.7439047 246.877377,81.302364 C245.254608,81.349292 243.559211,81.3168779 241.912286,81.3226834 C241.863976,81.7721279 241.907585,82.2838205 241.887969,82.7560033 C243.510901,82.8014799 245.206135,82.7642278 246.858086,82.7763227 C246.891968,83.3202682 246.891968,83.9809694 246.858086,84.5287853 C245.211161,84.5360422 243.520628,84.5034667 241.912286,84.5455568 C241.873703,84.9730693 241.873703,85.5279808 241.912286,85.9593637 C243.520628,86.0001637 245.211161,85.9651692 246.858086,85.9785542 C246.901532,86.5155654 246.862949,87.1328863 246.877377,87.7129552 C245.254608,87.7513362 243.559211,87.7129552 241.912286,87.7226311 C241.859113,88.1622384 241.907585,88.6737698 241.887969,89.1422435 C243.462753,89.2359382 245.254608,89.1291811 246.877377,89.1962671 C246.862949,89.7608546 246.901532,90.3712412 246.858086,90.9140579 C245.254608,90.953729 243.482044,90.9150255 241.912286,90.9308294 C241.873703,91.3646312 241.873703,91.9216392 241.912286,92.3612466 C243.510901,92.4012402 245.283464,92.3636655 246.858086,92.3746315 C246.891968,92.9079336 246.891968,93.5783106 246.858086,94.1090325 L241.926877,94.1090325 C241.849386,94.5149355 241.91715,95.0735562 241.887969,95.5383208 C243.506037,95.5960535 245.240017,95.5215493 246.858086,95.5770243 C246.901532,96.113713 246.862949,96.7311952 246.877377,97.2920735 C245.264335,97.3352925 243.568776,97.3028783 241.926877,97.3052972 C241.849386,97.722005 241.91715,98.2794968 241.887969,98.7394235 C243.506037,98.7947373 245.240017,98.7273287 246.858086,98.7778045 C246.891968,99.3123967 246.891968,99.9756781 246.858086,100.511077 L241.912286,100.511077 C241.863976,100.954393 241.907585,101.472214 241.887969,101.940526 C243.510901,101.983906 245.206135,101.953911 246.858086,101.961007 C246.891968,102.5085 246.891968,103.168072 246.858086,103.713469 L241.912286,103.713469 C241.878404,104.14711 241.873703,104.705569 241.912286,105.145177 C243.520628,105.198071 245.264335,105.128405 246.877377,105.178881 C246.862949,105.744597 246.901532,106.354661 246.858086,106.89522 C245.240017,106.93602 243.55451,106.897639 241.912286,106.914572 C241.873703,107.34918 241.873703,107.909091 241.912286,108.344989 C243.520628,108.401432 245.264335,108.32467 246.877377,108.380951 L246.877377,110.079552 C245.264335,110.117932 243.568776,110.079552 241.926877,110.093904 C241.849386,110.502387 241.91715,111.058428 241.887969,111.52803 C243.453026,111.613339 245.278601,111.538835 246.858086,111.559316 C246.901532,112.153737 246.862949,112.813309 246.877377,113.434178 C244.177355,113.472882 241.501649,113.455788 238.801789,113.455788 C238.236657,113.455788 237.739126,113.472882 237.328652,113.332098 C236.575142,113.077461 235.937706,112.520292 235.860216,111.634949 C235.812067,110.961185 235.860216,110.232108 235.860216,109.531736 L235.860216,80.1373884 C235.860216,79.4394352 235.816931,78.7306772 235.860216,78.0582037 C235.937706,77.0274002 236.913151,76.2731656 238.019423,76.2107562 C239.468243,76.1373808 240.975263,76.2107562 242.457965,76.2107562 C243.940667,76.2107562 245.428395,76.1986614 246.858086,76.2336558" id="Fill-31" fill="#FFFFFF" sketch:type="MSShapeGroup"></path>
                        <path d="M263.255676,92.1607946 C263.477774,91.8687444 263.632431,91.5313788 263.806218,91.2096559 C266.428912,86.3880051 269.027288,81.4789488 271.635392,76.6240774 C272.157239,77.2715549 272.490385,78.1098084 272.712645,79.0251463 C272.954034,79.9703183 273.016772,81.0514363 272.930041,82.1769021 C272.780085,84.25012 272.171505,86.0925683 271.456903,87.6192604 C269.97874,90.7542446 267.737827,93.2741656 264.685367,94.8153715 C266.086039,97.4470488 267.486711,100.083564 268.921103,102.687665 C270.611637,102.412709 272.094501,102.816032 273.17143,103.428837 C274.296831,104.067768 275.122806,104.941016 275.601045,106.1505 C275.857024,106.819587 275.987364,107.626717 275.895445,108.380951 C275.630063,110.51545 274.180919,111.927967 272.442075,112.623662 C271.191035,113.120841 269.438087,113.245821 268.003533,112.762834 C266.747792,112.346126 265.685129,111.522064 265.023376,110.568345 C264.337631,109.573826 263.902839,107.964244 264.371188,106.520441 C264.786689,105.242581 265.540198,104.299666 266.578544,103.605261 C265.496752,101.545267 264.371188,99.5213956 263.289396,97.4531769 C263.08659,97.6692715 262.989808,97.9564838 262.854928,98.2122495 C261.898289,99.9790646 260.913117,101.809741 259.956802,103.587199 C260.314103,103.88054 260.657138,104.150658 260.956726,104.472542 C261.811557,105.375946 262.598625,106.730569 262.309088,108.576727 C261.985344,110.585116 260.681131,111.927967 258.908729,112.660753 C257.976569,113.042789 256.759411,113.22534 255.624283,113.061979 C253.489393,112.762834 251.977672,111.613339 251.166449,110.006337 C250.750949,109.194209 250.54328,108.105995 250.731657,106.927635 C250.838005,106.204685 251.200331,105.506732 251.581787,104.967624 C252.721617,103.39981 254.851481,102.310467 257.594951,102.703147 C259.039232,100.104045 260.434878,97.4554346 261.850141,94.8332719 C258.807245,93.2802936 256.585462,90.7687584 255.097896,87.6553837 C254.373567,86.1480433 253.759962,84.3030148 253.59574,82.2406016 C253.416927,80.0172463 253.885601,78.047399 254.837215,76.6553628 C254.841917,76.6503636 254.89509,76.6082735 254.89509,76.6443968 C257.677143,81.80938 260.454332,87.0043584 263.255676,92.1607946 L263.255676,92.1607946 Z M268.626378,105.492218 C268.249786,105.679608 267.921341,105.935535 267.713672,106.167272 C267.365936,106.555436 267.032627,107.212267 267.032627,107.851358 C267.032627,108.644135 267.443102,109.268713 267.858603,109.668811 C268.612112,110.399178 269.804953,110.68381 270.906199,110.397888 C271.930279,110.130027 272.659471,109.447555 272.968624,108.471259 C273.152138,107.909091 273.016772,107.2471 272.828719,106.840068 C272.77052,106.710089 272.678763,106.567208 272.625589,106.484318 C272.157239,105.767336 271.191035,105.107925 269.925729,105.178881 C269.39918,105.207586 268.984004,105.323052 268.626378,105.492218 L268.626378,105.492218 Z M258.638322,105.954725 C258.116474,105.527213 257.329407,105.145177 256.406649,105.198071 C255.522961,105.248386 254.808035,105.576398 254.305803,106.061805 C253.803571,106.555436 253.388071,107.328861 253.547592,108.308866 C253.706789,109.397241 254.8805,110.388373 256.020491,110.502387 C257.677143,110.665748 258.614004,109.913771 259.217882,109.018914 C259.792579,107.915058 259.37254,106.567208 258.638322,105.954725 L258.638322,105.954725 Z" id="Fill-32" fill="#FFFFFF" sketch:type="MSShapeGroup"></path>
                        <path d="M151.307768,65.003994 C151.307768,44.4043741 166.048869,27.8813625 186.754499,27.8813625 C207.47018,27.8813625 224.582535,43.7954389 224.582535,64.3952201 C224.582535,84.9983878 207.803326,98.9798691 187.092671,98.9798691 C166.382015,98.9798691 151.307768,85.6037752 151.307768,65.003994" id="Fill-33" fill="#70B262" sketch:type="MSShapeGroup"></path>
                        <path d="M177.428033,38.0960248 L179.070256,38.0960248 C186.411626,38.4058141 193.086704,38.87074 200.061046,39.4269417 C200.432938,39.4593559 200.809693,39.4593559 201.0801,39.5735312 C201.365098,39.687384 201.56304,39.8905774 201.693543,40.1390862 C201.838311,40.4143649 201.857603,40.7098017 201.857603,41.1419909 C201.857603,42.6472348 201.693543,44.1318369 201.596922,45.5575774 C201.543911,46.4979114 201.997832,48.9013993 202.21993,49.4984009 C202.422897,50.0691164 202.596847,50.657571 202.727187,51.3229488 C203.224717,53.9451115 203.53387,56.7269262 203.818706,59.581955 C204.103542,62.4097301 204.330503,65.3284585 204.417558,68.315563 C204.504614,71.3004098 204.615663,74.3599222 204.721848,77.3602504 C204.823494,79.9306472 205.060019,82.5636146 205.171068,85.0775688 C205.306434,88.052901 198.611902,89.6876404 196.714024,89.7742395 C194.12505,89.6540974 191.772764,88.9982342 189.387082,88.4625131 C184.619609,87.4067137 179.954106,86.2343199 175.172367,85.1509442 C174.071283,84.898565 170.482548,84.04354 169.970589,83.8572794 C168.241634,83.2397972 169.077174,79.5199062 169.173632,77.7627669 C169.23167,76.7151919 170.757981,61.4981012 171.550074,58.3040942 C171.960548,56.6032362 173.776721,49.6630521 174.211513,47.9309088 C174.317536,47.5130722 174.448038,47.0733036 174.51564,46.614667 C174.59767,46.1339372 174.621988,45.6283726 174.665272,45.1215179 C174.747302,44.1089373 174.824793,43.0892612 174.926115,42.1186094 C175.022735,41.1419909 175.071046,40.0636144 175.317298,39.2551948 C175.578303,38.3903327 176.278639,38.1081196 177.428033,38.0960248 L177.428033,38.0960248 Z M177.674286,40.7168974 C177.558536,40.8731628 177.510063,41.939767 177.558536,42.5727306 C177.640728,43.54564 178.500261,43.9997612 179.118404,44.4956499 C181.166563,46.1447419 191.50722,47.5767717 192.357188,48.018798 C192.845153,48.2576309 191.000124,48.2660167 190.377117,48.2324737 C185.885402,47.974289 177.428033,46.5388726 176.809727,47.8625326 C176.162565,48.723847 175.032462,55.1944285 173.974501,59.2097563 C173.622225,60.5561546 173.424121,62.0047947 173.206725,63.4906869 C172.776797,66.4105441 172.453215,69.437481 172.187509,72.5724651 C172.004157,74.7911438 171.22633,80.1301315 172.950746,81.5102341 C174.225779,82.5384573 180.002254,83.5149146 183.10805,84.25012 C185.716154,84.8685698 191.854956,86.4758943 193.294211,85.2435101 C194.60799,84.1119162 194.719039,74.7177684 194.719039,73.7148637 C194.719039,71.7388883 195.332643,60.2152412 195.854167,56.7198306 C195.984507,55.8428736 196.100419,54.9781727 196.288959,54.1470148 C196.655824,52.5182422 197.148491,50.9496212 197.674878,49.4853385 C197.930858,48.7501331 198.360948,48.1171695 198.665076,47.4359877 C198.824597,47.0733036 198.872907,46.650629 198.926081,46.1905411 C199.090141,44.8355957 199.641007,42.2568132 199.244798,41.9636341 C198.438115,41.5059651 178.268436,40.2281043 177.674286,40.7168974 L177.674286,40.7168974 Z" id="Fill-34" fill="#FFFFFF" sketch:type="MSShapeGroup"></path>
                        <path d="M184.774267,64.843052 C183.982174,64.5548721 183.658754,63.0355981 184.059502,61.4282736 C184.465114,59.7911152 185.479466,58.6680684 186.295876,58.9465724 C187.131416,59.2278179 187.44527,60.8061147 187.010479,62.4456921 C186.580712,64.070917 185.58095,65.1289741 184.774267,64.843052" id="Fill-35" fill="#FFFFFF" sketch:type="MSShapeGroup"></path>
                        <path d="M181.291878,64.3686114 C180.470928,64.4310209 179.838032,63.191541 179.87694,61.5688964 C179.915523,59.929319 180.62056,58.5143832 181.460964,58.426494 C182.30623,58.3269938 182.958418,59.6169494 182.900219,61.286522 C182.847045,62.9331951 182.122716,64.3013641 181.291878,64.3686114" id="Fill-36" fill="#FFFFFF" sketch:type="MSShapeGroup"></path>
                        <path d="M176.795461,61.7093579 C177.53438,61.1807325 178.476268,61.9159379 178.881879,63.3513542 C179.292354,64.7746758 179.007356,66.3373299 178.268436,66.8359601 C177.53438,67.3187864 176.621512,66.5942245 176.215738,65.2034784 C175.805264,63.8017663 176.061243,62.2365319 176.795461,61.7093579" id="Fill-37" fill="#FFFFFF" sketch:type="MSShapeGroup"></path>
                        <path d="M187.513034,64.4889148 C188.367866,63.1579979 189.584862,62.6593677 190.227323,63.3968308 C190.874485,64.1355841 190.67168,65.8135424 189.797557,67.1263977 C188.947264,68.4176435 187.754423,68.867088 187.141143,68.1391395 C186.517974,67.4268337 186.687059,65.80048 187.513034,64.4889148" id="Fill-38" fill="#FFFFFF" sketch:type="MSShapeGroup"></path>
                        <path d="M182.905245,66.5500379 C185.513348,66.9306224 186.633886,70.9328878 186.252267,73.4349083 C185.836929,76.1736654 184.155961,76.4823258 183.339875,75.0407814 C182.89568,74.2578417 182.465589,73.822911 181.890892,73.726636 C181.316195,73.6271358 180.804237,73.8795149 180.176366,74.4666794 C179.045939,75.529897 177.621274,74.6648736 177.96901,72.0115868 C178.282865,69.5997132 180.354854,66.1871926 182.905245,66.5500379" id="Fill-39" fill="#FFFFFF" sketch:type="MSShapeGroup"></path>
                        <path d="M17.0120059,32.5346531 C17.0120059,18.4044859 28.7342049,8.2380418 42.9391925,8.2380418 C57.1487194,8.2380418 66.8809589,19.7052463 66.8809589,33.8342847 C66.8809589,47.9694511 55.3761558,57.5640508 41.1616034,57.5640508 C26.95694,57.5640508 17.0120059,46.6685294 17.0120059,32.5346531" id="Fill-40" fill="#70B262" sketch:type="MSShapeGroup"></path>
                        <path d="M59.9936725,26.5759254 C59.9936725,26.2671037 59.8775983,25.9763436 59.6602023,25.7589589 L50.159787,16.3156253 C49.7104047,15.8627943 48.9716474,15.8590852 48.5175638,16.3156253 L25.4017725,39.3103473 C24.9476888,39.7631784 24.9476888,40.492417 25.4017725,40.9452481 L34.8924609,50.3958385 C35.1145582,50.6096754 35.4044195,50.7333654 35.7135725,50.7333654 C36.0272647,50.7333654 36.3124247,50.6096754 36.534522,50.3958385 L59.6602023,27.3938596 C59.8775983,27.1738946 59.9936725,26.8832958 59.9936725,26.5759254 L59.9936725,26.5759254 Z M35.7135725,47.9467128 L27.8649452,40.1273139 L30.0719765,37.9349214 L31.8738828,39.7318931 C32.0330795,39.8894486 32.24545,39.9686295 32.4532812,39.9686295 C32.6659758,39.9686295 32.8783463,39.8894486 33.0378673,39.7260875 C33.356585,39.40888 33.356585,38.8923494 33.0378673,38.5765933 L31.2263962,36.7867173 L32.7672976,35.2492204 L36.534522,39.0015256 C36.6987443,39.1590811 36.9017121,39.2419711 37.1142446,39.2419711 C37.326615,39.2419711 37.5393097,39.1590811 37.6985065,39.0015256 C38.0172242,38.6820604 38.0172242,38.1669812 37.6985065,37.8486448 L33.9312821,34.0974685 L35.467158,32.5623906 L37.2737656,34.3640389 C37.428261,34.5190142 37.6406315,34.6020655 37.853164,34.6020655 C38.0561318,34.6020655 38.2732035,34.5190142 38.4278611,34.3640389 C38.7467409,34.0432836 38.7467409,33.529172 38.4278611,33.206159 L36.6215776,31.4141865 L38.1621549,29.8862043 L41.9297035,33.6299624 C42.0889002,33.7899369 42.2967315,33.8728269 42.5091019,33.8728269 C42.7217965,33.8728269 42.934167,33.7899369 43.0936879,33.6299624 C43.4075423,33.3166252 43.4075423,32.7965468 43.0936879,32.4782105 L39.3165746,28.730582 L40.8621773,27.2016322 L42.6635973,28.9971524 C42.8231183,29.154708 43.0356508,29.2338889 43.2433199,29.2338889 C43.4607159,29.2338889 43.6635216,29.154708 43.8228804,28.9971524 C44.1464616,28.6801062 44.1464616,28.162608 43.8228804,27.8442717 L42.0164349,26.044881 L43.5959197,24.4798079 L47.3584427,28.2285652 C47.5226651,28.3859595 47.7350355,28.4675594 47.9428667,28.4675594 C48.1552371,28.4675594 48.3629062,28.3859595 48.5271285,28.2285652 C48.8413071,27.9055522 48.8460084,27.3938596 48.5271285,27.0755232 L44.7550407,23.3230568 L46.29578,21.7976548 L48.0973621,23.5934976 C48.2615845,23.7531495 48.4643901,23.830234 48.6817861,23.830234 C48.8894552,23.830234 49.0971243,23.7531495 49.2613466,23.5934976 C49.5755251,23.2727422 49.5755251,22.7597595 49.2613466,22.4402943 L47.4501997,20.6373558 L49.3435388,18.7636222 L57.1970296,26.5710875 L35.7135725,47.9467128 L35.7135725,47.9467128 Z" id="Fill-41" fill="#FFFFFF" sketch:type="MSShapeGroup"></path>
                        <path d="M73.4350993,38.7746263 C73.4350993,25.0455242 83.2639592,14.0371175 97.0631734,14.0371175 C110.866927,14.0371175 122.265545,24.6397824 122.265545,38.366143 C122.265545,52.0966965 111.089186,61.410212 97.2851086,61.410212 C83.4863807,61.410212 73.4350993,52.4966327 73.4350993,38.7746263" id="Fill-42" fill="#70B262" sketch:type="MSShapeGroup"></path>
                        <path d="M89.1806641,34.8338028 C85.9156714,40.1777897 86.6738825,45.905909 91.5762349,48.6359577 L100.738641,32.1803547 L95.1359523,29.0947175 C92.7209277,30.6620484 91.2043435,31.510139 89.1806641,34.8338028" id="Fill-43" fill="#FFFFFF" sketch:type="MSShapeGroup"></path>
                        <path d="M107.374973,35.8173557 L101.776986,32.7330086 L92.6388976,49.1729689 C97.4157732,51.8070652 102.815656,49.4780816 105.640831,43.8889724 C107.408855,40.4201705 107.317098,38.6881884 107.374973,35.8173557" id="Fill-44" fill="#FFFFFF" sketch:type="MSShapeGroup"></path>
                        <path d="M101.043092,24.968601 C100.989919,24.1122858 100.632293,23.1406665 98.9902324,22.2193617 C97.9758799,21.66187 98.8307114,20.1327588 99.845226,20.6902506 C101.946072,21.8336168 102.743191,23.4480369 102.79604,24.8773252 C102.839649,25.5717306 102.718873,26.1888903 102.559352,26.6960676 C103.085901,26.8016959 103.602723,26.9939233 104.100254,27.2640416 C104.592921,27.5404491 105.027551,27.877976 105.399604,28.2633984 C105.747178,27.8584629 106.220554,27.4333694 106.829133,27.0910046 C108.070608,26.3822466 109.876729,26.2035654 111.953745,27.3672509 C112.967935,27.9258716 112.117967,29.4585305 111.103614,28.896362 C109.451989,28.0016659 108.427909,28.2175993 107.6744,28.6201157 C107.118994,28.9242608 106.698792,29.4067646 106.43795,29.7779957 C107.123695,31.2938831 107.027237,32.6633423 106.505389,34.199549 L96.9132172,28.909747 C97.9468613,27.6543019 99.0578343,26.8484626 100.714324,26.6297878 C100.902863,26.2167891 101.081676,25.6017259 101.043092,24.968601" id="Fill-45" fill="#FFFFFF" sketch:type="MSShapeGroup"></path>
                        <path d="M101.067085,24.932639 C101.013912,24.0810005 100.656449,23.1032531 99.0142254,22.1785618 C98.000035,21.623489 98.8550286,20.0980869 99.8643555,20.6552562 C101.955799,21.7939457 102.762482,23.4059468 102.820357,24.8402343 C102.854239,25.5318983 102.738165,26.1506706 102.588533,26.6588154 C103.110057,26.7679916 103.627041,26.9555423 104.119546,27.2267894 C104.617076,27.4996492 105.051868,27.8358859 105.423597,28.2201795 C105.771496,27.820082 106.239845,27.3951497 106.83886,27.0576228 C108.094601,26.3451558 109.896021,26.1663133 111.977738,27.3338691 C112.987227,27.8874906 112.14196,29.4175693 111.132471,28.8616901 C109.47128,27.9595759 108.452064,28.1780894 107.698555,28.5817348 C107.133584,28.8892664 106.718084,29.3733828 106.45254,29.7442914 C107.147851,31.2555021 107.05123,32.6246388 106.529707,34.1598779 L96.9328331,28.8734625 C97.966153,27.6185012 99.0771259,26.8063726 100.738641,26.5938258 C100.917453,26.1759892 101.105831,25.5656026 101.067085,24.932639" id="Fill-46" fill="#FFFFFF" sketch:type="MSShapeGroup"></path>
                        <path d="M86.5435422,29.4045069 C85.9688451,29.0876219 85.2346271,29.1979269 84.7807055,29.7109096 C84.2687469,30.3030733 84.3266219,31.1955117 84.9206106,31.7120423 L88.1711751,34.524981 C88.2483417,34.4108057 88.3065409,34.2990493 88.3739807,34.1803585 C88.847356,33.3933872 89.3014396,32.7233327 89.7553612,32.1408449 L86.7944959,29.5701256 C86.7124658,29.5080387 86.6304357,29.4454681 86.5435422,29.4045069" id="Fill-47" fill="#FFFFFF" sketch:type="MSShapeGroup"></path>
                        <path d="M105.645857,45.9250995 C105.109743,46.7454526 104.53002,47.4983971 103.892585,48.1629686 L107.080411,50.9109177 C107.152876,50.9796164 107.234906,51.0325112 107.326663,51.0791167 C107.90136,51.3926151 108.64028,51.283439 109.084636,50.7730365 C109.601458,50.1795827 109.543746,49.2823063 108.954458,48.7704524 L105.645857,45.9250995" id="Fill-48" fill="#FFFFFF" sketch:type="MSShapeGroup"></path>
                        <path d="M111.67361,43.2332705 C111.596281,43.1973085 111.509388,43.1576374 111.422332,43.1310287 L107.640518,41.9792768 C107.326663,42.6386878 106.998381,43.3809889 106.58288,44.1977942 C106.529707,44.3179363 106.45254,44.4259836 106.389639,44.5472546 L110.533781,45.8085052 C111.282427,46.0355658 112.07452,45.61402 112.306182,44.8655909 C112.504287,44.2181135 112.214425,43.5383831 111.67361,43.2332705" id="Fill-49" fill="#FFFFFF" sketch:type="MSShapeGroup"></path>
                        <path d="M87.4564108,35.9183073 L83.2832509,34.6499611 C82.5347667,34.4169337 81.7376481,34.8396083 81.5106873,35.5857797 C81.3078817,36.2366437 81.6024443,36.9249211 82.1820048,37.2432575 C82.2690605,37.2900242 82.3512527,37.3308241 82.4572758,37.3585617 L86.4615121,38.5765933 C86.6931742,37.6936695 87.0311836,36.8049402 87.4564108,35.9183073" id="Fill-50" fill="#FFFFFF" sketch:type="MSShapeGroup"></path>
                        <path d="M91.9385616,25.506741 C91.566508,25.30258 91.1125865,25.2643603 90.6876835,25.4467506 C89.9727571,25.7481541 89.6347477,26.5843112 89.9388751,27.2977459 L91.2719454,30.4146684 C92.0061634,29.6988148 92.7497842,29.1292281 93.5757592,28.575768 L92.561731,26.1938895 C92.4263651,25.887648 92.2089691,25.6581685 91.9385616,25.506741" id="Fill-51" fill="#FFFFFF" sketch:type="MSShapeGroup"></path>
                        <path d="M102.390591,49.5596815 C101.603199,50.1687779 100.782088,50.6659568 99.9272561,51.0467025 L101.308637,54.2911854 C101.438977,54.592589 101.656211,54.8291642 101.92678,54.9744636 C102.298834,55.1774957 102.747892,55.2171668 103.172957,55.0417109 C103.892585,54.7354694 104.245185,53.8983448 103.931168,53.1800722 L102.390591,49.5596815" id="Fill-52" fill="#FFFFFF" sketch:type="MSShapeGroup"></path>
                        <path d="M86.0845951,40.5980453 L82.1820048,41.2202042 C81.4046642,41.3367985 80.8781153,42.0623281 80.9987287,42.8357532 C81.071194,43.2813273 81.3417637,43.6488494 81.7183564,43.8543005 C81.9840626,44.0008901 82.3027804,44.0668473 82.6265237,44.0139525 L86.1184771,43.467588 C85.9832733,42.5427354 85.9688451,41.5877263 86.0845951,40.5980453" id="Fill-53" fill="#FFFFFF" sketch:type="MSShapeGroup"></path>
                        <path d="M112.151687,36.6319033 C111.885981,36.4827335 111.567263,36.4179051 111.238818,36.4674134 L108.664597,36.8744453 C108.620988,37.8618685 108.52453,38.7986547 108.311835,39.7981728 L111.678312,39.2682573 C112.460678,39.1410195 112.99209,38.424037 112.871477,37.6444838 C112.794148,37.1974583 112.523578,36.8323552 112.151687,36.6319033" id="Fill-54" fill="#FFFFFF" sketch:type="MSShapeGroup"></path>
                        <path d="M127.89255,135.835769 C127.89255,116.749456 141.546672,101.439638 160.740743,101.439638 C179.920224,101.439638 195.777,116.191158 195.777,135.271181 C195.777,154.358623 180.229215,167.31172 161.049896,167.31172 C141.860526,167.31172 127.89255,154.915792 127.89255,135.835769" id="Fill-55" fill="#70B262" sketch:type="MSShapeGroup"></path>
                        <path d="M174.559087,134.494047 L172.424197,142.255875 L166.425462,116.706237 C166.169483,115.627538 165.208304,114.856532 164.097493,114.827827 C162.996247,114.790414 161.986758,115.515782 161.682468,116.57658 L156.852581,132.974612 L154.36039,128.642077 C153.930624,127.896228 153.143232,127.427593 152.283537,127.416788 C151.42368,127.395179 150.617159,127.8264 150.163075,128.549672 L147.376321,132.947036 L138.339554,132.947036 L138.339554,137.828193 L148.743111,137.828193 C149.57395,137.828193 150.361179,137.388586 150.805536,136.681118 L152.129041,134.584033 L155.461474,140.370046 C155.949439,141.218137 156.891165,141.698544 157.876661,141.585659 C158.847404,141.466807 159.66349,140.784335 159.938923,139.847388 L163.764185,126.824625 L169.869267,152.734527 C170.13011,153.820322 171.0814,154.594069 172.211826,154.61326 L172.264676,154.61326 C173.366246,154.61326 174.332126,153.882892 174.621988,152.821126 L178.80455,137.565332 L185.914258,137.57017 L185.914258,132.698204 L176.920938,132.68998 C175.824555,132.68998 174.858675,133.428733 174.559087,134.494047" id="Fill-56" fill="#FFFFFF" sketch:type="MSShapeGroup"></path>
                        <path d="M212.647804,0.149492302 C204.040965,0.149492302 197.868281,7.00307735 197.868281,15.6695992 C197.868281,24.2383948 204.093977,29.809281 212.792572,29.809281 C221.529913,29.809281 228.470697,23.9440868 228.470697,15.4015774 C228.470697,6.81810683 221.336834,0.149492302 212.647804,0.149492302" id="Fill-57" fill="#70B262" sketch:type="MSShapeGroup"></path>
                        <path d="M216.4006,12.4672064 C214.821115,12.4396302 213.517226,13.6945915 213.488207,15.2645025 C213.459026,16.8332847 214.719793,18.1329163 216.30398,18.1569447 C217.878763,18.1858111 219.182653,16.9306886 219.20697,15.3607775 C219.240528,13.7945755 217.980085,12.4946214 216.4006,12.4672064" id="Fill-58" fill="#FFFFFF" sketch:type="MSShapeGroup"></path>
                        <path d="M221.351425,9.71296801 L210.310108,9.52186943 L210.324698,8.80972488 C210.334263,8.27142358 209.899633,7.82472058 209.358494,7.81391585 L207.53762,7.78504949 C206.996805,7.77682499 206.552448,8.2043375 206.542884,8.74134868 L206.523592,9.45462209 L205.185496,9.43172251 C204.123158,9.41269329 203.238983,10.2583649 203.224717,11.3164221 L203.089514,18.8608648 C203.07006,19.9202121 203.920028,20.7947501 204.987554,20.8128117 L221.158022,21.0937347 C222.215983,21.1117963 223.099671,20.2687049 223.119125,19.2090351 L223.249303,11.6647537 C223.268595,10.6054064 222.423328,9.7321585 221.351425,9.71296801 L221.351425,9.71296801 Z M209.242744,13.4941395 C209.237881,13.8495668 208.938292,14.139198 208.576128,14.1332312 L205.798939,14.0850131 C205.432073,14.0754985 205.142212,13.7824807 205.151776,13.4196353 L205.171068,11.9674474 C205.185496,11.6058921 205.480221,11.3201312 205.847249,11.3249691 L208.619575,11.3728647 C208.981901,11.3788315 209.276464,11.6766873 209.266737,12.0358236 L209.242744,13.4941395 L209.242744,13.4941395 Z M216.279987,19.3293385 C214.048314,19.2920864 212.271049,17.4578626 212.309632,15.2417642 C212.348216,13.0305038 214.19827,11.2599795 216.419892,11.2959415 C218.646539,11.3367415 220.424128,13.1687075 220.38522,15.3836771 C220.346637,17.5996142 218.506634,19.3690096 216.279987,19.3293385 L216.279987,19.3293385 Z" id="Fill-59" fill="#FFFFFF" sketch:type="MSShapeGroup"></path>
                        <path d="M25.8894139,72.622941 C25.7251916,72.3634662 21.7308443,66.2713727 16.543494,66.2713727 C11.3610072,66.2713727 7.36665992,72.3634662 7.19757416,72.622941 C6.9805024,72.95692 6.9805024,73.3870127 7.19757416,73.7208305 C7.36665992,73.9803053 11.3610072,80.0723988 16.543494,80.0723988 C21.7308443,80.0723988 25.7251916,73.9803053 25.8894139,73.7208305 C26.1068099,73.3870127 26.1068099,72.95692 25.8894139,72.622941 L25.8894139,72.622941 Z M21.8371916,75.3833075 C20.5715612,76.5952111 18.6252105,78.0412709 16.543494,78.0412709 C13.2640732,78.0412709 10.337252,74.5495694 9.30847134,73.172047 C10.337252,71.792912 13.2640732,68.3025006 16.543494,68.3025006 C19.8279404,68.3025006 22.7549237,71.7954922 23.7837044,73.1730146 C23.3874957,73.70164 22.7161782,74.5424737 21.8371916,75.3833075 L21.8371916,75.3833075 Z" id="Fill-60" fill="#FFFFFF" sketch:type="MSShapeGroup"></path>
                        <path d="M16.543494,73.172047 L17.6591683,69.9828779 C17.3115941,69.8616069 16.9346771,69.7954884 16.543494,69.7954884 C14.6694466,69.7954884 13.1528624,71.3075055 13.1528624,73.172047 C13.1528624,75.0383624 14.6694466,76.5482831 16.543494,76.5482831 C18.4224049,76.5482831 19.9389891,75.0383624 19.9389891,73.172047 C19.9389891,72.5292462 19.7603386,71.9286968 19.4464843,71.4182943 L16.543494,73.172047" id="Fill-61" fill="#FFFFFF" sketch:type="MSShapeGroup"></path>
                        <g id="Imported-Layers-Copy-7" transform="translate(123.778887, 226.357835)">
                            <g id="Fill-1-+-Group-5">
                                <path d="M20.8463319,0.217798381 C23.5987287,0.217798381 25.8309131,2.47029216 25.8309131,5.2519978 C25.8309131,5.47170669 25.8119963,5.68759456 25.7855127,5.90157192 C34.1486373,8.10821341 40.3211946,15.7884721 40.3211946,24.9264516 C40.3211946,35.7896234 31.6024338,44.5951738 20.8463319,44.5951738 C10.0921217,44.5951738 1.37336089,35.7896234 1.37336089,24.9264516 C1.37336089,15.7884721 7.54591814,8.10821341 15.9090428,5.89966141 C15.8825592,5.68759456 15.8636424,5.47170669 15.8636424,5.2519978 C15.8636424,2.47029216 18.0939351,0.217798381 20.8463319,0.217798381 Z M22.6150543,5.95315575 C22.6150543,6.93706949 21.8224396,7.73566355 20.8482236,7.73566355 C19.8721158,7.73566355 19.0795012,6.93706949 19.0795012,5.95315575 C19.0795012,4.9673315 19.8721158,4.16682692 20.8482236,4.16682692 C21.8224396,4.16682692 22.6150543,4.9673315 22.6150543,5.95315575 Z" id="Fill-1" fill="#70B262" sketch:type="MSShapeGroup"></path>
                                <g id="Group-5" transform="translate(9.458408, 15.284097)">
                                    <mask id="mask-4" sketch:name="Clip 4" fill="white">
                                        <use xlink:href="#path-3"></use>
                                    </mask>
                                    <g id="Clip-4"></g>
                                    <path d="M1.62495455,0.590348243 L21.1508926,0.590348243 L21.1508926,20.3087438 L1.62495455,20.3087438 L1.62495455,0.590348243 Z" id="Fill-3" fill="#FFFFFF" sketch:type="MSShapeGroup" mask="url(#mask-4)"></path>
                                </g>
                            </g>
                        </g>
                    </g>
                </g>
            </g>
        </g>
    </g>
</svg>