<?xml version="1.0" encoding="UTF-8" standalone="no"?>
<svg width="133px" height="150px" viewBox="0 0 133 150" version="1.1" xmlns="http://www.w3.org/2000/svg" xmlns:xlink="http://www.w3.org/1999/xlink" xmlns:sketch="http://www.bohemiancoding.com/sketch/ns">
    <!-- Generator: Sketch 3.3.2 (12043) - http://www.bohemiancoding.com/sketch -->
    <title>PlacaBig</title>
    <desc>Created with Sketch.</desc>
    <defs></defs>
    <g id="Landing-PetBio-150714" stroke="none" stroke-width="1" fill="none" fill-rule="evenodd" sketch:type="MSPage">
        <g id="Desktop-HD" sketch:type="MSArtboardGroup" transform="translate(-652.000000, -2430.000000)">
            <g id="Block03" sketch:type="MSLayerGroup" transform="translate(0.000000, 1660.000000)">
                <g id="PlacaBig" transform="translate(652.000000, 769.836779)" sketch:type="MSShapeGroup">
                    <path d="M83.5862622,19.4266351 C83.6795504,18.708271 83.7433792,17.9788172 83.7433792,17.2333451 C83.7433792,7.8514854 76.1649373,0.247669266 66.8189287,0.247669266 C57.4741476,0.247669266 49.8981606,7.8514854 49.8981606,17.2333451 C49.8981606,17.9788172 49.9619894,18.708271 50.0540502,19.4229385 C21.6563737,26.8739637 0.702116747,52.7979124 0.702116747,83.6382809 C0.702116747,120.297029 30.3027205,150.013644 66.8189287,150.013644 C103.337592,150.013644 132.940651,120.297029 132.940651,83.6382809 C132.940651,52.7979124 111.983939,26.8776602 83.5862622,19.4266351 M66.8189287,24.3455192 C62.9081875,24.3455192 59.7351599,21.1640165 59.7351599,17.2333451 C59.7351599,13.3076024 62.9081875,10.1224031 66.8189287,10.1224031 C70.7321248,10.1224031 73.903925,13.3076024 73.903925,17.2333451 C73.903925,21.1640165 70.7321248,24.3455192 66.8189287,24.3455192" id="Fill-1" fill="#FFFFFF"></path>
                    <path d="M83.5862622,19.4266351 C83.6795504,18.708271 83.7433792,17.9788172 83.7433792,17.2333451 C83.7433792,7.8514854 76.1649373,0.247669266 66.8189287,0.247669266 C57.4741476,0.247669266 49.8981606,7.8514854 49.8981606,17.2333451 C49.8981606,17.9788172 49.9619894,18.708271 50.0540502,19.4229385 C21.6563737,26.8739637 0.702116747,52.7979124 0.702116747,83.6382809 C0.702116747,120.297029 30.3027205,150.013644 66.8189287,150.013644 C103.337592,150.013644 132.940651,120.297029 132.940651,83.6382809 C132.940651,52.7979124 111.983939,26.8776602 83.5862622,19.4266351 M66.8189287,24.3455192 C62.9081875,24.3455192 59.7351599,21.1640165 59.7351599,17.2333451 C59.7351599,13.3076024 62.9081875,10.1224031 66.8189287,10.1224031 C70.7321248,10.1224031 73.903925,13.3076024 73.903925,17.2333451 C73.903925,21.1640165 70.7321248,24.3455192 66.8189287,24.3455192" id="Fill-2" fill="#8EC78E"></path>
                    <path d="M60.0555314,100.674476 C60.4397316,100.971433 60.6361279,101.366965 60.6459477,101.866 C60.6496302,102.092722 60.602986,102.320676 60.5035604,102.549863 C60.420092,102.777817 60.2777047,102.970038 60.0763985,103.124061 C59.7879414,103.326139 59.5043943,103.429643 59.228212,103.433339 C59.0526828,103.437036 58.8697888,103.41116 58.6795299,103.353247 C58.4880435,103.280548 58.3112868,103.163491 58.1468049,102.99961 C57.8644852,102.686635 57.7208705,102.33423 57.7135056,101.939931 C57.7098232,101.729227 57.7576948,101.516059 57.8558929,101.302891 C57.954091,101.073704 58.1112081,100.875323 58.327244,100.705281 C58.5567822,100.519221 58.8403293,100.42311 59.1754305,100.41695 C59.4822997,100.412021 59.7670743,100.497042 60.0334368,100.674476 L60.0555314,100.674476 L60.0555314,100.674476 Z M63.9834572,111.592871 C62.8566335,111.898453 61.4192581,112.478812 60.4065898,112.790555 C58.7691357,113.296984 57.5232467,113.208266 56.7241593,111.394489 C54.8755792,112.446776 51.3036216,114.166907 49.9104354,110.336042 C49.2009538,108.385493 49.2733749,106.966015 48.8314832,107.022696 C47.6445132,107.173022 45.7050998,109.493227 43.677308,112.571226 C43.1384457,113.388165 41.3954286,113.457168 41.2284918,112.151051 C40.0059248,112.7425 37.8811624,113.543421 36.1442827,112.898988 C35.8226838,112.735107 34.8910289,112.114086 34.7412767,110.543049 C34.7044524,110.499923 34.595207,110.605891 34.2122342,110.889293 C33.267077,111.589175 32.2814132,112.255787 31.3031141,112.712928 C27.4807513,114.234677 25.3437141,112.204035 25.4775091,109.978708 C25.7696486,105.109112 31.0244769,103.066148 33.5837661,103.342158 C34.6320313,103.455519 35.2494521,103.758636 35.6152402,104.106113 C36.737154,105.168256 35.6876614,106.494088 34.4835066,106.022161 C33.7408831,105.731365 32.2924604,104.862675 29.9087004,106.3376 C28.8137911,107.016535 27.7446588,108.031855 27.7520236,109.691609 C27.758161,110.883132 29.2961895,111.645855 31.5461545,110.223913 C32.5845999,109.569623 33.2462099,108.752684 34.5436529,107.886457 C34.9769523,107.633859 35.9221094,107.180415 36.6352735,107.774329 C37.4171762,108.421226 36.5923118,109.89492 37.4429532,110.647785 C38.0161849,111.152981 41.0873319,109.674359 41.0873319,109.674359 C41.1290661,107.860582 41.0861045,105.571181 41.1008342,105.348156 C41.1928949,104.093791 43.1679052,103.593524 43.4477699,105.323512 C43.5103712,105.709186 43.5054613,106.725739 43.4809117,108.217915 C43.4710919,108.838937 43.5447405,108.686146 43.6110243,108.617143 C43.677308,108.532123 44.3254158,107.725041 44.6715643,107.380029 C45.6449534,106.409067 47.2382183,104.571879 49.639163,104.39198 C50.6800634,104.31312 51.3478107,105.556395 51.6743196,106.900709 C52.0462451,108.433548 52.393621,109.612749 52.6513911,109.913402 C53.3891047,110.771004 55.9520763,109.116179 56.2699928,109.027461 L56.5265355,108.979406 C56.5989566,107.778025 56.8149925,106.448497 57.0457582,105.561324 C57.3636747,104.345157 58.3137418,104.033414 58.9323901,104.40923 C59.4454754,104.718509 59.5878627,105.224937 59.3092255,105.999982 C58.780183,107.479836 58.7040794,108.831544 58.726174,109.357687 C58.7887753,110.805505 59.4356556,110.705698 59.8407229,110.620677 C60.8263868,110.417366 62.5988634,109.418064 63.9319032,109.183949 C63.8950789,107.412066 63.8545722,105.297636 63.8705294,105.0857 C63.9625901,103.828871 65.9376003,103.329836 66.2174651,105.059824 C66.2800664,105.445498 66.245697,106.661665 66.2211475,108.151377 C66.2113277,108.773631 66.2812939,108.601125 66.3475776,108.532123 C66.4138614,108.444637 68.3422275,105.988892 69.1523622,105.441802 C69.6789497,105.0857 70.7186226,104.267529 71.9227774,105.038877 C72.233329,105.239723 72.9219435,106.098556 73.3834748,107.489694 C73.4497585,107.688076 73.533227,108.031855 73.8793754,107.685611 C74.8527646,106.713417 76.447257,104.367336 78.8469742,104.186205 C79.8878745,104.107345 80.5470296,104.833102 80.8735384,106.178649 C81.2454639,107.709023 81.7364546,108.836472 81.9954522,109.135893 C82.7245735,109.987334 83.7973882,109.29731 84.1275795,109.195038 L84.1337169,108.951066 C84.4270838,104.081469 89.6806847,102.037273 92.2399739,102.314515 C93.2894666,102.427876 93.9056599,102.730994 94.2702205,103.077238 C95.3933618,104.140614 94.3438691,105.466445 93.1397144,104.994518 C92.3958634,104.704955 90.9474408,103.835032 88.5661357,105.308726 C87.4712264,105.988892 86.4020941,107.002981 86.4094589,108.665199 C86.4143688,109.85549 87.9523973,110.61698 90.2023623,109.195038 C91.2395802,108.540748 91.9036452,107.725041 93.1998607,106.858815 C93.6331601,106.606217 94.5770897,106.152773 95.2939362,106.746686 C96.0721565,107.393583 95.2485196,108.867277 96.1003885,109.61891 C96.6736202,110.126571 99.7435397,108.646716 99.7435397,108.646716 C98.5271102,103.740154 100.453021,99.5630451 100.729204,98.9494168 C102.310194,95.4401527 104.024979,95.1789294 104.474235,95.1086948 C107.067894,94.7070024 108.151756,103.116668 102.857648,109.192574 C103.994292,110.339739 106.975833,108.615911 107.394403,108.456959 C108.191035,108.291846 108.701666,108.594964 108.895607,109.114946 C109.265077,110.223913 107.773693,110.822755 107.688997,110.858489 C107.688997,110.858489 103.111736,113.560671 100.773393,110.652714 C100.169474,110.992797 97.1351515,112.737571 94.8004905,111.870113 C94.4776641,111.707464 93.5484642,111.086443 93.3974845,109.515407 C93.3618877,109.47228 93.2514148,109.577016 92.8672145,109.861651 C91.9245123,110.5603 90.9388484,111.228144 89.9593219,111.685285 C87.5375101,112.650086 85.7932656,112.188017 84.8726579,111.152981 C84.7253607,111.261413 84.5436941,111.350131 84.3202934,111.412972 C83.6942802,111.587942 80.5359823,112.598334 79.3146428,109.241861 C78.6051612,107.291312 78.7094968,106.908102 78.2676051,106.966015 C77.0818625,107.115109 75.5745209,108.814293 74.3605464,110.47035 C73.6878891,111.385864 72.57825,111.619979 71.9915161,110.437081 C71.5152551,109.477209 71.0831832,107.304866 70.6511114,107.394816 C70.1183864,107.505712 68.4735675,109.22954 66.4470032,112.307539 C65.8762265,113.172533 63.9564527,113.197177 63.9846847,111.644623 L63.9834572,111.592871 L63.9834572,111.592871 Z M104.177186,97.9575075 C102.582694,98.6352095 101.017661,105.016698 101.856027,107.22231 C104.474235,104.515198 104.943132,98.8952006 104.177186,97.9575075 L104.177186,97.9575075 Z" id="Fill-3" fill="#FFFFFF"></path>
                    <path d="M78.4308595,124.865972 L78.4541816,125.10132 C78.4541816,125.378561 78.3572109,125.600355 78.1608146,125.774093 C77.9717832,125.940438 77.7483824,126.021762 77.4893848,126.021762 C76.9799819,126.021762 76.6743402,125.770396 76.5724596,125.266433 L76.4558493,124.699627 L76.3380115,124.23879 L73.8916502,124.23879 L73.7848597,124.676216 L73.6572021,125.266433 C73.5540941,125.770396 73.2570447,126.021762 72.7623715,126.021762 C72.5119663,126.021762 72.2910204,125.940438 72.1044439,125.774093 C71.9154125,125.600355 71.8208968,125.382258 71.8208968,125.113642 L71.8208968,124.996584 L71.8442189,124.865972 C72.0884867,123.739755 72.3793988,122.622163 72.7144999,121.513196 C73.0618759,120.402997 73.4558959,119.290333 73.903925,118.172741 C74.1776523,117.519683 74.5851746,117.191922 75.1252644,117.191922 C75.6911312,117.191922 76.1109283,117.519683 76.3846556,118.172741 C77.2549367,120.336459 77.9374138,122.566714 78.4308595,124.865972 L78.4308595,124.865972 Z M68.6589165,118.244208 C68.6589165,118.494342 68.5680832,118.711206 68.3876441,118.891105 C68.207205,119.073469 67.9911691,119.162186 67.7419913,119.162186 L66.1536363,119.162186 L66.1536363,125.065586 C66.1536363,125.334203 66.0591206,125.560925 65.8713166,125.750681 C65.6908775,125.931813 65.4674767,126.021762 65.2011143,126.021762 C64.9421166,126.021762 64.7187159,125.931813 64.5296844,125.750681 C64.3431079,125.560925 64.2485922,125.334203 64.2485922,125.065586 L64.2485922,119.162186 L62.672512,119.162186 C62.4208792,119.162186 62.2060708,119.073469 62.0256317,118.891105 C61.8451926,118.711206 61.7555868,118.494342 61.7555868,118.244208 C61.7555868,117.982985 61.8451926,117.762424 62.0256317,117.581292 C62.2060708,117.401393 62.4208792,117.310211 62.672512,117.310211 L67.7419913,117.310211 C67.9911691,117.310211 68.207205,117.401393 68.3876441,117.581292 C68.5680832,117.762424 68.6589165,117.982985 68.6589165,118.244208 L68.6589165,118.244208 Z M57.8153862,125.065586 C57.8153862,125.334203 57.7220979,125.560925 57.5330665,125.750681 C57.3526274,125.931813 57.1304541,126.021762 56.8628641,126.021762 C56.5965017,126.021762 56.3694185,125.931813 56.180387,125.750681 C56.0011754,125.560925 55.9103421,125.334203 55.9103421,125.065586 L55.9103421,118.160419 C55.9103421,117.90166 56.0011754,117.676171 56.180387,117.486414 C56.3694185,117.299122 56.5965017,117.204244 56.8628641,117.204244 C57.1304541,117.204244 57.3526274,117.299122 57.5330665,117.486414 C57.7220979,117.676171 57.8153862,117.90166 57.8153862,118.160419 L57.8153862,125.065586 L57.8153862,125.065586 Z M51.994691,118.348944 C51.7123714,119.356871 51.3981373,120.416551 51.0544438,121.524286 C50.7082953,122.627091 50.3240951,123.791507 49.901843,125.019996 C49.6821247,125.68784 49.2819672,126.021762 48.7025982,126.021762 C48.1293665,126.021762 47.7292091,125.684143 47.5021258,125.007674 C47.1105607,123.842026 46.7460001,122.717041 46.408444,121.631486 C46.0794802,120.537305 45.770156,119.470232 45.479244,118.432732 L45.4325999,118.137008 C45.4325999,117.862231 45.5381629,117.633044 45.7492889,117.453145 C45.9383204,117.2868 46.1617211,117.204244 46.4207188,117.204244 C46.8748852,117.204244 47.1694796,117.440823 47.3020471,117.91275 C47.6076888,119.005699 47.8826437,119.963107 48.1256841,120.781278 C48.3687245,121.599449 48.581078,122.291937 48.7615171,122.859975 L49.3249289,121.041269 C49.5446473,120.324137 49.7913701,119.486251 50.0663249,118.525146 L50.2541289,117.864695 C50.3866964,117.424805 50.6653336,117.204244 51.0888131,117.204244 C51.2066509,117.204244 51.3208063,117.227655 51.4300517,117.274478 C51.5478895,117.313908 51.64977,117.373053 51.7356934,117.453145 L51.9480469,117.734083 C52.0020559,117.838819 52.0302879,117.95218 52.0302879,118.077863 L51.994691,118.348944 L51.994691,118.348944 Z M87.8149199,125.007674 C87.8149199,125.25904 87.7289965,125.475904 87.5559223,125.655803 C87.3840755,125.829541 87.1729495,125.917027 86.9213168,125.917027 L83.2413412,125.917027 C82.9897085,125.917027 82.7736725,125.829541 82.5932335,125.655803 C82.4201592,125.475904 82.3342358,125.25904 82.3342358,125.007674 L82.3342358,118.220796 C82.3342358,117.966966 82.4201592,117.75503 82.5932335,117.581292 C82.7736725,117.401393 82.9897085,117.310211 83.2413412,117.310211 L86.7691096,117.310211 C87.0195149,117.310211 87.2306409,117.401393 87.4037152,117.581292 C87.5841542,117.75503 87.6737601,117.966966 87.6737601,118.220796 C87.6737601,118.469698 87.5841542,118.687795 87.4037152,118.868926 C87.2306409,119.041432 87.0195149,119.128917 86.7691096,119.128917 L84.2405074,119.128917 L84.2405074,120.733223 L86.5223868,120.733223 C86.7654272,120.733223 86.9728708,120.820708 87.1447175,120.993214 C87.3165643,121.166952 87.4037152,121.373959 87.4037152,121.619164 C87.4037152,121.863137 87.3165643,122.071376 87.1447175,122.245114 C86.9728708,122.408995 86.7654272,122.491551 86.5223868,122.491551 L84.2405074,122.491551 L84.2405074,124.098321 L86.9213168,124.098321 C87.1655846,124.098321 87.3718008,124.18827 87.544875,124.369402 C87.7253141,124.541908 87.8149199,124.755076 87.8149199,125.007674 L87.8149199,125.007674 Z M75.8899825,122.551928 C75.780737,122.150236 75.6592168,121.753472 75.5254219,121.359173 C75.4014467,120.966106 75.2627418,120.569342 75.1154446,120.167649 C74.9656924,120.569342 74.8245326,120.966106 74.6907376,121.359173 C74.565535,121.753472 74.4489247,122.150236 74.3384518,122.551928 L75.8899825,122.551928 L75.8899825,122.551928 Z" id="Fill-4" fill="#FFFFFF"></path>
                    <path d="M93.0145117,64.1672871 C94.3377318,60.0751994 90.1213489,58.7444392 88.2531291,60.4189791 C86.1860581,62.272186 87.1287603,66.2410552 92.2252441,65.9551882 C92.6204917,65.309523 92.814433,64.784612 93.0145117,64.1672871 L93.0145117,64.1672871 Z M44.9587938,55.6689044 C43.0255178,52.1670335 43.0525223,48.4409048 45.0177127,47.3467242 C46.9841306,46.2525435 50.1461109,48.2043252 52.0793869,51.7074283 C52.9165261,53.2217842 53.3792849,54.8149999 53.4848479,56.1827257 C53.6444199,56.1851901 53.7659401,56.1975119 53.8702756,56.2184591 C53.930422,54.2937855 54.4287776,52.1140495 55.3911194,49.9466354 C57.8092488,44.4929828 62.2441226,41.1771719 65.29563,42.5412011 C68.3471374,43.9039982 68.8589952,49.4315819 66.4408658,54.8852345 C65.4625668,57.0933107 64.1516216,58.9514463 62.7363408,60.2895997 C67.9175205,65.1086768 74.3482716,80.6625532 76.7884955,85.8019985 C78.0392944,89.0253955 87.3202467,74.2884581 88.631192,71.9608598 C74.5925395,67.3081277 81.3350697,48.9436365 94.0001756,53.9068793 C99.278326,55.9757186 100.133877,61.7300244 99.3961638,65.0322813 C100.167019,64.9965479 102.410847,64.1586618 103.57695,63.6152681 C108.459853,61.3394216 110.945493,67.4670797 106.571993,69.5445442 C103.84945,70.8371067 99.8736523,72.0323266 96.1617623,72.1493842 C89.8181621,82.5712083 86.4008666,87.1894392 82.5772763,91.5033203 C78.5941139,95.9971005 74.9779672,96.239841 72.9906822,92.5716251 C72.1523155,91.028929 71.1543769,89.1979015 69.8151997,86.6719214 C67.7395363,82.7523396 61.6500238,68.0252596 57.6423119,64.7402534 C54.9295881,62.5173909 51.3625405,62.3399562 47.7881279,63.4267437 C39.2215671,66.0328158 30.5101641,75.9999636 32.5686427,83.3277702 C34.1520878,88.9588575 50.6591962,92.2635787 58.9839441,85.5912948 C62.4343815,82.8275029 66.5660685,88.0223966 63.1156311,90.7861884 C53.7818973,98.266786 29.8804685,98.2470711 26.195583,85.1329218 C23.0274653,73.8584254 33.6795093,61.1508973 45.2853027,57.3003179 C45.4375098,57.2608879 45.7554263,57.1598487 45.9002686,57.1438303 C45.6032192,56.7618529 45.2030617,56.1124912 44.9587938,55.6689044 L44.9587938,55.6689044 Z M46.5078696,71.4297879 C46.5078696,69.3338405 48.2005602,67.6358891 50.2872708,67.6358891 C52.3739814,67.6358891 54.0654445,69.3338405 54.0654445,71.4297879 C54.0654445,73.5245031 52.3739814,75.2224546 50.2872708,75.2224546 C48.2005602,75.2224546 46.5078696,73.5245031 46.5078696,71.4297879 L46.5078696,71.4297879 Z" id="Fill-5" fill="#373436"></path>
                    <path d="M50.2909532,22.775715 C50.1252438,22.775715 49.955852,22.7978944 49.7889152,22.8459496 C48.9726431,23.0763683 48.4399181,23.8193761 48.4374632,24.6276897 C48.4374632,24.7952669 48.4595578,24.9653085 48.5074294,25.1353501 C48.7369675,25.9559856 49.4783635,26.490754 50.2872708,26.490754 C50.4542076,26.490754 50.6235994,26.4685747 50.7917637,26.4205195 C51.6055809,26.191333 52.1383058,25.4483252 52.1383058,24.6375472 C52.1395333,24.46997 52.1162112,24.2986962 52.0683396,24.1286546 C51.8388015,23.3104835 51.0974055,22.775715 50.2909532,22.775715" id="Fill-6" fill="#C8E1BF"></path>
                    <path d="M44.817634,24.4761309 C44.6003706,24.4761309 44.3634676,24.5143286 44.1118348,24.5968851 C19.6077149,34.1303035 3.93651819,57.8548013 3.94388305,83.512598 C3.94388305,84.2075506 3.95615782,84.9037353 3.97947988,85.6011523 C4.28512161,86.5733465 5.04247482,87.0366483 5.77896092,87.0366483 C6.66888162,87.0366483 7.52934287,86.3601785 7.53179783,85.0860988 L7.53179783,85.0405079 C7.51829558,84.5316153 7.5121582,84.0227228 7.51093072,83.5150624 C7.50233838,59.2755111 22.331486,36.8595942 45.5111584,27.892981 C46.2145026,27.5578266 46.5287367,26.9183224 46.5275092,26.2825147 C46.5250543,25.3756262 45.8818564,24.4761309 44.817634,24.4761309" id="Fill-7" fill="#C8E1BF"></path>
                    <path d="M85.9994817,139.520353 C85.8092227,139.520353 85.6152814,139.549926 85.423795,139.611535 C84.6431198,139.86783 84.1472191,140.596051 84.1484466,141.379721 C84.1484466,141.57071 84.177906,141.764163 84.2405074,141.955152 C84.4945951,142.737589 85.2188064,143.235392 85.9970267,143.235392 C86.1872856,143.235392 86.3799995,143.20582 86.5702584,143.144211 C87.3533886,142.887916 87.8505167,142.159695 87.8505167,141.377257 C87.8505167,141.1875 87.8210573,140.994047 87.758456,140.804291 C87.5031408,140.018156 86.7801569,139.519121 85.9994817,139.520353" id="Fill-8" fill="#86BA87"></path>
                    <path d="M128.031971,77.218595 C127.14205,77.218595 126.286499,77.8926004 126.285271,79.1321789 C126.285271,79.1814663 126.286499,79.2332181 126.288954,79.2849699 C126.376105,80.5923186 126.419066,81.8959707 126.420294,83.1946942 C126.430113,106.527357 112.689738,128.353057 90.641799,137.927138 C89.980189,138.275846 89.689277,138.888242 89.689277,139.496942 C89.6905045,140.409991 90.3459771,141.314415 91.3954698,141.314415 C91.6348278,141.314415 91.8950529,141.267592 92.1724626,141.162857 C115.474883,130.992398 129.992251,107.898779 129.987341,83.207016 C129.986114,81.6704808 129.92965,80.1277847 129.815495,78.581392 C129.481621,77.6535564 128.746362,77.218595 128.031971,77.218595" id="Fill-9" fill="#86BA87"></path>
                </g>
            </g>
        </g>
    </g>
</svg>