<?xml version="1.0" encoding="UTF-8" standalone="no"?>
<svg width="140px" height="137px" viewBox="0 0 140 137" version="1.1" xmlns="http://www.w3.org/2000/svg" xmlns:xlink="http://www.w3.org/1999/xlink" xmlns:sketch="http://www.bohemiancoding.com/sketch/ns">
    <!-- Generator: Sketch 3.3.2 (12043) - http://www.bohemiancoding.com/sketch -->
    <title>LogoAV</title>
    <desc>Created with Sketch.</desc>
    <defs>
        <path id="path-1" d="M0.353263019,42.2645886 C0.353263019,19.2238998 20.2633705,1.00387253 42.9095681,1.00387253 C65.5557656,1.00387253 80.4811282,18.5465882 80.4811282,41.587277 C80.4811282,64.6245102 62.1335301,80.2666066 39.489031,80.2666066 C16.8411351,80.2666066 0.353263019,65.3018218 0.353263019,42.2645886 L0.353263019,42.2645886 Z"></path>
    </defs>
    <g id="Landing-PetBio-150714" stroke="none" stroke-width="1" fill="none" fill-rule="evenodd" sketch:type="MSPage">
        <g id="Desktop-HD" sketch:type="MSArtboardGroup" transform="translate(-645.000000, -393.000000)">
            <g id="Header" sketch:type="MSLayerGroup">
                <g id="LogoAV" transform="translate(645.495334, 392.077066)">
                    <path d="M57.780691,94.5917509 C58.4158851,95.0876398 58.7436724,95.7545843 58.7589578,96.5908568 C58.764053,96.9727085 58.6859275,97.3545602 58.5245814,97.7398675 C58.3853143,98.1217192 58.1475411,98.4448245 57.8146586,98.702272 C57.3374139,99.0426556 56.8669626,99.2154392 56.4084001,99.2258062 C56.1162787,99.2292619 55.8139671,99.1843382 55.4980684,99.0893072 C55.1838682,98.9683587 54.8883501,98.7679298 54.6183077,98.4949317 C54.1512532,97.9679418 53.9100832,97.3752942 53.899893,96.7169888 C53.8914011,96.3593268 53.9695265,96.0051205 54.1342694,95.6440028 C54.2956155,95.2604233 54.557166,94.926951 54.9155241,94.6401303 C55.2976596,94.3273921 55.7630157,94.1667033 56.3183859,94.1580642 C56.8312967,94.1511528 57.3034463,94.2945632 57.7416283,94.5917509 L57.780691,94.5917509 L57.780691,94.5917509 Z M64.285486,112.925815 C62.4223633,113.435527 60.0395363,114.41521 58.361537,114.940472 C55.6492243,115.788839 53.5856927,115.63679 52.2609564,112.590615 C49.197079,114.361647 43.2782251,117.24886 40.9667301,110.8144 C39.7914512,107.536696 39.9120361,105.159194 39.1817328,105.254225 C37.2150089,105.503033 33.9982773,109.397575 30.6388819,114.567259 C29.7472325,115.940889 26.8582882,116.053198 26.5797539,113.862302 C24.5552851,114.855808 21.0345436,116.205247 18.1591864,115.118439 C17.6241968,114.843713 16.0803694,113.8001 15.832406,111.161695 C15.7695659,111.090854 15.591236,111.270549 14.9560419,111.745704 C13.3901357,112.918904 11.7562942,114.038542 10.132643,114.809156 C3.80447953,117.362897 0.259960687,113.948694 0.482448454,110.211385 C0.966486724,102.035267 9.67408045,98.6055132 13.9132367,99.070301 C15.6540761,99.2603629 16.673104,99.7683466 17.281124,100.350627 C19.1425484,102.137209 17.3983122,104.362662 15.4044142,103.571313 C14.1730888,103.084063 11.7749764,101.620586 7.82454475,104.098303 C6.01067502,105.238674 4.23756641,106.944048 4.25285182,109.732775 C4.26134372,111.735337 6.81061195,113.013935 10.5385558,110.627794 C12.2573163,109.525435 13.3544697,108.156989 15.5029203,106.698696 C16.2230333,106.277104 17.790638,105.516856 18.9744088,106.512089 C20.2651775,107.602354 18.9013784,110.074886 20.3093354,111.336207 C21.2587297,112.186302 26.3470759,109.706857 26.3470759,109.706857 C26.4184079,106.6555 26.3436791,102.814521 26.3725516,102.439581 C26.5237074,100.331621 29.7947871,99.4901651 30.2601432,102.398113 C30.362046,103.046051 30.3552525,104.751425 30.312793,107.256786 C30.2941108,108.302127 30.4214893,108.041224 30.531884,107.93237 C30.6388819,107.785504 31.7139564,106.430881 32.2863104,105.8486 C33.9014697,104.217523 36.5424504,101.135065 40.5200561,100.829238 C42.2439117,100.69965 43.3512554,102.788603 43.8930386,105.046885 C44.5061538,107.62136 45.0853013,109.601459 45.513293,110.10426 C46.7344282,111.547002 50.9803779,108.765187 51.5085741,108.618321 C51.651238,108.578581 51.7922035,108.550935 51.9297723,108.537113 C52.0520556,106.519001 52.407017,104.284909 52.7942477,102.800698 C53.3173487,100.751485 54.8934452,100.233134 55.9192667,100.858611 C56.770155,101.380417 57.002833,102.230512 56.5408737,103.533301 C55.6645097,106.019656 55.5422263,108.290032 55.5795907,109.171228 C55.6780967,111.604021 56.7514728,111.434693 57.4240312,111.294738 C59.0561743,110.956083 61.9943716,109.273171 64.2022654,108.879224 C64.1394254,105.905619 64.0765853,102.356644 64.1003626,101.995527 C64.2532168,99.8892951 67.5242965,99.0478391 67.9896526,101.955787 C68.0932538,102.607181 68.0389056,104.642571 67.9981445,107.147933 C67.9811607,108.193273 68.0949521,107.899541 68.2053468,107.785504 C68.3157415,107.642094 71.5086957,103.514294 72.8538126,102.596814 C73.7284783,101.995527 75.4472387,100.625353 77.4428351,101.92123 C77.9591426,102.25643 79.1004539,103.699173 79.8647248,106.031751 C79.9717228,106.366951 80.1143867,106.944048 80.6867407,106.365223 C82.3002016,104.730691 84.9411823,100.789498 88.9187881,100.487126 C90.6426436,100.355811 91.7347019,101.572207 92.2764851,103.833944 C92.8896003,106.406691 93.706521,108.298671 94.1328143,108.801472 C95.3437592,110.226936 97.1202646,109.071014 97.6688413,108.896503 L97.6773332,108.488733 C98.1630698,100.310887 106.870664,96.8794054 111.111518,97.3424653 C112.848961,97.5325272 113.869687,98.0439666 114.476009,98.6245194 C116.335735,100.409374 114.593197,102.634826 112.600997,101.843477 C111.369672,101.359683 108.969861,99.8962065 105.022826,102.373923 C103.208957,103.514294 101.43415,105.21794 101.447737,108.004939 C101.456228,110.004045 104.005497,111.284371 107.738536,108.899958 C109.452201,107.802783 110.549354,106.430881 112.697805,104.974316 C113.419616,104.552724 114.983824,103.790748 116.169293,104.784254 C117.461761,105.87279 116.096263,108.347051 117.505918,109.613554 C118.455313,110.461922 123.543659,107.977294 123.543659,107.977294 C121.52938,99.7355177 124.718938,92.7205049 125.179199,91.6924426 C127.794704,85.8022508 130.63949,85.3599249 131.381682,85.2476155 C135.685377,84.5685761 137.475469,98.6901772 128.703337,108.894775 C130.588539,110.821311 135.530824,107.925459 136.223763,107.659372 C137.541706,107.381191 138.389198,107.89263 138.706795,108.763459 C139.318211,110.626066 136.848767,111.633394 136.7095,111.692141 C136.7095,111.692141 129.124535,116.231165 125.248832,111.346574 C124.248487,111.918487 119.222981,114.848896 115.354071,113.392331 C114.82078,113.121061 113.276953,112.07572 113.030687,109.437315 C112.967847,109.363018 112.784422,109.540985 112.152625,110.017868 C110.58502,111.194524 108.954576,112.312434 107.330925,113.081321 C103.319351,114.700303 100.42701,113.922777 98.9035635,112.186302 C98.6572984,112.367724 98.3566851,112.52323 97.9864383,112.621716 C96.9504266,112.917176 91.7143214,114.612183 89.6915509,108.977711 C88.516272,105.703462 88.6912051,105.058979 87.957505,105.15401 C85.9924795,105.406274 83.495861,108.260659 81.4866776,111.039019 C80.3725404,112.580248 78.5297982,112.970739 77.5583249,110.985456 C76.7668799,109.373385 76.0552587,105.724196 75.336844,105.876246 C74.4553849,106.062852 71.7294851,108.956977 68.3683913,114.124933 C67.4240921,115.579771 64.2447249,115.621239 64.2888828,113.012207 L64.285486,112.925815 L64.285486,112.925815 Z M130.89085,90.026809 C128.24987,91.1671806 125.656444,101.883217 127.04402,105.585969 C131.383381,101.041762 132.157842,91.6025952 130.89085,90.026809 L130.89085,90.026809 Z" id="Fill-1" fill="#F6F7F1" sketch:type="MSShapeGroup"></path>
                    <path d="M89.2058143,135.214896 L89.2210997,135.411869 L89.2431786,135.612298 C89.2431786,136.07363 89.0835309,136.450298 88.7557436,136.74403 C88.4449401,137.020484 88.0729949,137.158711 87.6450031,137.158711 C86.8026067,137.158711 86.2947911,136.735391 86.1249531,135.888752 L85.9296394,134.938442 L85.7377225,134.162644 L81.6802929,134.162644 L81.5053598,134.898702 L81.2930623,135.888752 C81.1232243,136.735391 80.6289958,137.158711 79.8137734,137.158711 C79.3942736,137.158711 79.0308203,137.020484 78.7217152,136.74403 C78.4075149,136.450298 78.2512639,136.080541 78.2512639,135.631304 L78.2512639,135.430875 L78.292025,135.214896 C78.6945411,133.326371 79.1751826,131.449942 79.7339496,129.582151 C80.3029068,127.723 80.9618782,125.851754 81.7040703,123.975325 C82.1558393,122.878149 82.8317945,122.332153 83.7285391,122.332153 C84.6643464,122.332153 85.3572854,122.878149 85.815848,123.975325 C87.2560741,127.608963 88.3871951,131.356639 89.2058143,135.214896 L89.2058143,135.214896 Z M73.0100636,124.092817 C73.0100636,124.517865 72.8606061,124.878983 72.5633896,125.184809 C72.2627764,125.488909 71.907815,125.63923 71.4917119,125.63923 L68.8626199,125.63923 L68.8626199,135.553551 C68.8626199,135.999333 68.7029721,136.382913 68.3921686,136.700834 C68.0949521,137.004933 67.7230069,137.158711 67.2831265,137.158711 C66.8517381,137.158711 66.4831896,137.004933 66.1740845,136.700834 C65.8598842,136.382913 65.7019349,135.999333 65.7019349,135.553551 L65.7019349,125.63923 L63.091525,125.63923 C62.6754219,125.63923 62.3204605,125.488909 62.0198472,125.184809 C61.7226308,124.878983 61.571475,124.517865 61.571475,124.092817 C61.571475,123.659131 61.7226308,123.287646 62.0198472,122.985275 C62.3204605,122.67772 62.6754219,122.529126 63.091525,122.529126 L71.4917119,122.529126 C71.907815,122.529126 72.2627764,122.67772 72.5633896,122.985275 C72.8606061,123.287646 73.0100636,123.659131 73.0100636,124.092817 L73.0100636,124.092817 Z M55.0429026,135.553551 C55.0429026,135.999333 54.8883501,136.382913 54.5758482,136.700834 C54.2786317,137.004933 53.9049881,137.158711 53.4651077,137.158711 C53.0235289,137.158711 52.648187,137.004933 52.3356851,136.700834 C52.0367702,136.382913 51.8873128,135.999333 51.8873128,135.553551 L51.8873128,123.95459 C51.8873128,123.517448 52.0367702,123.145963 52.3356851,122.824586 C52.648187,122.506664 53.0235289,122.347703 53.4651077,122.347703 C53.9049881,122.347703 54.2786317,122.506664 54.5758482,122.824586 C54.8883501,123.145963 55.0429026,123.517448 55.0429026,123.95459 L55.0429026,135.553551 L55.0429026,135.553551 Z M45.3978032,124.269057 C44.9324471,125.964063 44.4110445,127.742006 43.8420872,129.608069 C43.2680348,131.455125 42.629444,133.411035 41.9280131,135.472343 C41.5662582,136.595436 40.90389,137.158711 39.942607,137.158711 C38.9932126,137.158711 38.3308445,136.588525 37.9521057,135.453337 C37.3033246,133.497427 36.7003997,131.607175 36.1416328,129.78258 C35.5964528,127.942435 35.0818437,126.157581 34.6012022,124.410739 C34.5502508,124.253506 34.5247751,124.087634 34.5247751,123.91485 C34.5247751,123.453518 34.6997082,123.068211 35.0478761,122.767567 C35.3637748,122.489386 35.7306248,122.347703 36.1620133,122.347703 C36.916094,122.347703 37.4018306,122.743378 37.6209217,123.536454 C38.132134,125.376599 38.5839031,126.980031 38.9864191,128.355388 C39.3906335,129.729017 39.7388014,130.891851 40.0360179,131.845616 L40.9735236,128.790803 C41.3386752,127.589957 41.7479848,126.178315 42.1997539,124.567972 L42.5139541,123.456974 C42.7347435,122.71746 43.1967029,122.347703 43.8964354,122.347703 C44.0917491,122.347703 44.2785708,122.389171 44.4636943,122.466924 C44.6590079,122.53431 44.8271476,122.632796 44.9681131,122.767567 C45.124364,122.895427 45.2432506,123.054388 45.3196777,123.240994 C45.4113902,123.413778 45.4572465,123.605568 45.4572465,123.816364 C45.4572465,123.961502 45.4368659,124.111824 45.3978032,124.269057 L45.3978032,124.269057 Z M104.752784,135.453337 C104.752784,135.874929 104.611818,136.239502 104.32649,136.541873 C104.041163,136.83215 103.6879,136.980744 103.271797,136.980744 L97.1763111,136.980744 C96.7585097,136.980744 96.3967547,136.83215 96.1012366,136.541873 C95.8159088,136.239502 95.6766417,135.874929 95.6766417,135.453337 L95.6766417,124.053077 C95.6766417,123.631485 95.8159088,123.273823 96.1012366,122.985275 C96.3967547,122.67772 96.7585097,122.529126 97.1763111,122.529126 L103.020436,122.529126 C103.436539,122.529126 103.788104,122.67772 104.07513,122.985275 C104.370648,123.273823 104.520106,123.631485 104.520106,124.053077 C104.520106,124.478125 104.370648,124.839242 104.07513,125.146797 C103.788104,125.433618 103.436539,125.580484 103.020436,125.580484 L98.8322315,125.580484 L98.8322315,128.277635 L102.611127,128.277635 C103.013643,128.277635 103.356716,128.421046 103.643742,128.71305 C103.92907,129.003326 104.07513,129.354077 104.07513,129.765302 C104.07513,130.171343 103.92907,130.52555 103.643742,130.814098 C103.356716,131.090552 103.013643,131.227051 102.611127,131.227051 L98.8322315,131.227051 L98.8322315,133.92593 L103.271797,133.92593 C103.672614,133.92593 104.019084,134.07798 104.30611,134.383807 C104.605025,134.672355 104.752784,135.031745 104.752784,135.453337 L104.752784,135.453337 Z M84.9955305,131.330721 C84.8155022,130.653409 84.6116966,129.986465 84.3926056,129.328159 C84.1820065,128.668126 83.9527252,127.999454 83.7098569,127.322142 C83.4652902,127.999454 83.2292154,128.668126 83.008426,129.328159 C82.7961285,129.986465 82.6025132,130.653409 82.4224849,131.330721 L84.9955305,131.330721 L84.9955305,131.330721 Z" id="Fill-2" fill="#F6F7F1" sketch:type="MSShapeGroup"></path>
                    <path d="M28.6858866,42.2645886 C28.6858866,19.2238998 48.5959941,1.00387253 71.2421917,1.00387253 C93.8883892,1.00387253 108.813752,18.5465882 108.813752,41.587277 C108.813752,64.6245102 90.4661537,80.2666066 67.8216546,80.2666066 C45.1737587,80.2666066 28.6858866,65.3018218 28.6858866,42.2645886" id="Fill-3" fill="#98BC97" sketch:type="MSShapeGroup"></path>
                    <g id="Group-6" transform="translate(28.332624, 0.000000)">
                        <mask id="mask-2" sketch:name="Clip 5" fill="white">
                            <use xlink:href="#path-1"></use>
                        </mask>
                        <g id="Clip-5"></g>
                        <path d="M67.1573379,33.1986348 C68.3122362,29.5736355 64.6267518,28.3935238 62.9963071,29.8794624 C61.1892309,31.5191785 62.0112468,35.0335963 66.4660973,34.7813323 C66.8142651,34.2094187 66.9807064,33.7446309 67.1573379,33.1986348 L67.1573379,33.1986348 Z M25.1496095,25.6687269 C23.4580231,22.5672618 23.4818005,19.2653679 25.2005609,18.2977799 C26.9210197,17.3267362 29.6842838,19.0562997 31.3758702,22.1577648 C32.1061736,23.5002931 32.510388,24.9119349 32.6021005,26.1231477 C32.7413676,26.1266033 32.8466672,26.1369704 32.9400781,26.1559765 C32.9910295,24.4506027 33.4275131,22.5188824 34.2682112,20.6009848 C36.3809958,15.7665006 40.2600954,12.8309078 42.9282503,14.0386649 C45.5930083,15.2481499 46.043079,20.1431084 43.928596,24.9741369 C43.0726126,26.9300469 41.9262061,28.5766743 40.6897856,29.7619696 C45.2193647,34.0331794 50.8410022,47.8109411 52.9741674,52.3620603 C54.0662256,55.2199006 62.1793864,42.1643741 63.3257928,40.1013383 C51.0532997,35.9787224 56.9483763,19.7111495 68.0184165,24.1084913 C72.6312163,25.9399971 73.3785034,31.040568 72.7331191,33.964066 C73.4107727,33.932965 78.1662364,33.0293069 83.2613761,29.8829181 C87.2831396,27.3982904 89.4502724,32.4297479 85.9414195,34.8331673 C80.5303812,38.5341914 73.1543173,40.1652683 69.9070149,40.2689384 C64.3635029,49.5024923 61.3760527,53.5940072 58.0336411,57.4142519 C54.5502639,61.3951853 51.3895789,61.6094369 49.6521363,58.3611058 C48.9201345,56.9943878 48.0471673,55.3719501 46.8786819,53.1344029 C45.0614154,49.6614532 39.7403912,36.6162938 36.2366335,33.7066185 C33.8656951,31.7368858 30.7474696,31.5796528 27.6224506,32.5420572 C20.1342937,34.8521735 12.5187582,43.679686 14.3207393,50.1711647 C15.7032205,55.1611541 30.1326561,58.0881078 37.410214,52.1789098 C40.4248383,49.7288388 44.0372923,54.3300652 41.0209696,56.7801362 C32.8602542,63.4081138 11.9701815,63.3891077 8.74665647,51.7694127 C5.97999562,41.7807946 15.2905142,30.5239452 25.433239,27.1131975 C25.5657126,27.0786408 25.8459453,26.9887933 25.9716254,26.9749707 C25.7117733,26.6380427 25.3636054,26.0609456 25.1496095,25.6687269 L25.1496095,25.6687269 Z M26.5032183,39.631367 C26.5032183,37.7756715 27.9842056,36.2707266 29.8065672,36.2707266 C31.6323256,36.2707266 33.1116145,37.7756715 33.1116145,39.631367 C33.1116145,41.4870626 31.6323256,42.9902796 29.8065672,42.9902796 C27.9842056,42.9902796 26.5032183,41.4870626 26.5032183,39.631367 L26.5032183,39.631367 Z" id="Fill-4" fill="#3A3735" sketch:type="MSShapeGroup" mask="url(#mask-2)"></path>
                    </g>
                </g>
            </g>
        </g>
    </g>
</svg>